<svg width="64" height="64" viewBox="0 0 64 64" fill="none" xmlns="http://www.w3.org/2000/svg">
<path fill-rule="evenodd" clip-rule="evenodd" d="M32 1C32.7065 1 33.2632 1.57487 33.2766 2.27454L33.4595 11.802C33.6556 22.017 41.9248 30.2741 52.2351 30.5502C52.597 30.5599 52.9568 30.5596 53.3143 30.5497C54.2144 30.5248 55 31.2129 55 32.1049C55 32.9969 54.2144 33.6849 53.3143 33.66C52.9568 33.6501 52.597 33.6499 52.2351 33.6595C41.9248 33.9356 33.6556 42.1927 33.4595 52.4077L33.2807 61.7212C33.2672 62.4232 32.7088 63 32 63C30.9938 63 30.2125 62.1723 30.1934 61.1758L30.0251 52.4076C29.829 42.1926 21.5597 33.9355 11.2494 33.6595C11.0442 33.654 10.8396 33.6517 10.6357 33.6525C9.75546 33.6562 9 32.9768 9 32.1048C9 31.2329 9.75546 30.5535 10.6357 30.5572C10.8396 30.558 11.0442 30.5557 11.2494 30.5502C21.5597 30.2742 29.829 22.0171 30.0251 11.8021L30.1975 2.81992C30.2166 1.82568 30.9961 1 32 1Z" fill="white" stroke="#131415" stroke-width="2"/>
</svg>
