<svg width="64" height="64" viewBox="0 0 64 64" fill="none" xmlns="http://www.w3.org/2000/svg">
<path d="M23.1509 7.37801L20.7507 18.4335H16.4762C14.1128 18.4335 12.2169 20.3688 12.2169 22.7312V24.2143C12.2169 26.5767 14.1128 28.512 16.4762 28.512H18.5626L17.0558 35.4521H13.2593C10.8959 35.4521 9 37.3874 9 39.7498V41.2688C9 43.6312 10.8959 45.5665 13.2593 45.5665H14.8599L12.859 54.7826C12.2802 57.4487 14.2853 60 17.0196 60H19.1743C21.1831 60 22.9083 58.5868 23.3349 56.622L25.7351 45.5665H32.4099L30.409 54.7826C29.8302 57.4487 31.8353 60 34.5696 60H36.6885C38.6973 60 40.4225 58.5868 40.8491 56.622L43.2493 45.5665H47.5238C49.8872 45.5665 51.7831 43.6313 51.7831 41.2688V39.7498C51.7831 37.3874 49.8872 35.4521 47.5238 35.4521H45.4452L46.952 28.512H50.7407C53.1041 28.512 55 26.5767 55 24.2143V22.7312C55 20.3688 53.1041 18.4335 50.7407 18.4335H49.1401L51.141 9.21741C51.7198 6.55127 49.7147 4 46.9804 4H44.8615C42.8526 4 41.1275 5.4132 40.7009 7.37801L38.3006 18.4335H31.6259L33.6268 9.21741C34.2056 6.55127 32.2005 4 29.4662 4H27.3115C25.3027 4 23.5775 5.41319 23.1509 7.37801ZM27.931 35.4521L29.4378 28.512H36.1125L34.6058 35.4521H27.931Z" fill="#C4C4FA" stroke="#131415" stroke-width="2"/>
</svg>
