<svg width="65" height="64" viewBox="0 0 65 64" fill="none" xmlns="http://www.w3.org/2000/svg">
<path d="M11.5835 51.4656C11.4068 51.4643 11.267 51.3154 11.277 51.1389L13.213 16.8836C13.2187 16.783 13.2513 16.7285 13.2826 16.694C13.32 16.6528 13.3792 16.6159 13.4545 16.5992C13.5298 16.5824 13.599 16.5907 13.6504 16.6121C13.6934 16.6301 13.746 16.6656 13.7939 16.7543L21.0711 30.2534C21.7904 31.5877 23.5785 31.8788 24.6839 30.8415L28.2613 27.4845C29.1913 26.6117 29.2378 25.1504 28.3651 24.2204L28.3304 24.1834C28.2352 24.082 28.2195 23.9294 28.292 23.8107L41.8136 1.67324C41.9546 1.44249 42.3029 1.49104 42.3754 1.75155L46.5989 16.9319C46.8018 17.6614 47.3495 18.245 48.0646 18.4939L62.9462 23.6727C63.2016 23.7616 63.2279 24.1123 62.9887 24.2383L40.0374 36.3271C39.9143 36.3919 39.763 36.3665 39.6678 36.2651L39.6331 36.2281C38.7604 35.2981 37.299 35.2517 36.369 36.1244L32.82 39.4548C31.7146 40.4921 31.8915 42.2951 33.1775 43.0977L46.0587 51.1371C46.1442 51.1905 46.1762 51.2453 46.1914 51.2894C46.2096 51.342 46.2134 51.4116 46.1919 51.4856C46.1704 51.5597 46.1299 51.6164 46.0864 51.6512C46.0499 51.6803 45.9936 51.7094 45.8928 51.7086L45.8857 52.7058L45.8928 51.7086L11.5835 51.4656Z" fill="#E4C5FA" stroke="#131415" stroke-width="2"/>
</svg>
