<svg width="20" height="20" viewBox="0 0 20 20" fill="none" xmlns="http://www.w3.org/2000/svg">
<path d="M19 9.99271L18.9999 10L19 10.0073C19.0006 10.0913 18.9751 10.1733 18.927 10.2421C18.8789 10.3108 18.8106 10.3628 18.7317 10.3909L18.7317 10.3909L18.7258 10.393L13.0492 12.4546L12.61 12.6142L12.4505 13.0534L10.392 18.7251C10.3917 18.7259 10.3914 18.7266 10.3911 18.7274C10.361 18.8072 10.3074 18.8759 10.2375 18.9246C10.1668 18.9737 10.0829 19 9.99697 19C9.91102 19 9.8271 18.9737 9.75649 18.9246C9.68657 18.8759 9.633 18.8072 9.60286 18.7275C9.60256 18.7267 9.60226 18.7259 9.60196 18.7251L7.54342 13.0534L7.38399 12.6142L6.94478 12.4546L1.27247 10.3946C1.19287 10.3645 1.12419 10.311 1.07552 10.241C1.02637 10.1703 1 10.0862 1 10C1 9.91382 1.02637 9.82974 1.07552 9.75904L0.260832 9.19261L1.07552 9.75904C1.12419 9.68904 1.19287 9.6355 1.27247 9.6054L6.94478 7.54535L7.38399 7.38584L7.54342 6.9466L9.60286 1.27252C9.63301 1.19278 9.68658 1.12407 9.75649 1.07544C9.8271 1.02631 9.91102 1 9.99697 1C10.0829 1 10.1668 1.02631 10.2375 1.07544L10.8085 0.254547L10.2375 1.07544C10.3074 1.12408 10.3609 1.19279 10.3911 1.27253L12.4505 6.9466L12.61 7.38584L13.0492 7.54535L18.7258 9.60698L18.7258 9.607L18.7317 9.60909C18.8106 9.63719 18.8789 9.68919 18.927 9.75793C18.9751 9.82668 19.0006 9.90873 19 9.99271Z" fill="#FFD405" stroke="#131415" stroke-width="2"/>
</svg>
