<svg width="64" height="64" viewBox="0 0 64 64" fill="none" xmlns="http://www.w3.org/2000/svg">
<path fill-rule="evenodd" clip-rule="evenodd" d="M32 4C26.4685 4 22.9801 9.95173 25.6828 14.778L29.6215 21.8114C30.0311 22.5429 29.4941 23.366 28.7143 23.674C28.6211 23.7108 28.5287 23.7491 28.4371 23.7889C27.6674 24.1233 26.7051 23.921 26.4773 23.1133L24.2891 15.3552C22.7875 10.0314 16.1123 8.28961 12.201 12.201C8.28959 16.1124 10.0314 22.7876 15.3552 24.2892L23.1136 26.4774C23.9211 26.7052 24.1234 27.6674 23.789 28.4368C23.7491 28.5285 23.7108 28.621 23.674 28.7143C23.366 29.4941 22.5429 30.0311 21.8114 29.6215L14.778 25.6827C9.95171 22.98 4 26.4685 4 32C4 37.5315 9.95171 41.02 14.778 38.3173L21.8112 34.3786C22.5428 33.9689 23.366 34.506 23.674 35.2859C23.7108 35.3791 23.7492 35.4715 23.789 35.5631C24.1233 36.3326 23.921 37.2948 23.1135 37.5226L15.3553 39.7108C10.0315 41.2124 8.28967 47.8876 12.201 51.799C16.1124 55.7104 22.7876 53.9686 24.2892 48.6448L26.4774 40.8864C26.7052 40.0789 27.6673 39.8766 28.4368 40.2109C28.5284 40.2508 28.6208 40.2891 28.714 40.3259C29.494 40.634 30.0311 41.4571 29.6213 42.1888L25.6827 49.222C22.98 54.0483 26.4685 60 32 60C37.5315 60 41.0199 54.0483 38.3172 49.222L34.3786 42.1887C33.9689 41.457 34.5059 40.6339 35.2858 40.3259C35.379 40.2891 35.4715 40.2507 35.5632 40.2109C36.3326 39.8765 37.2947 40.0788 37.5224 40.8863L39.7107 48.6448C41.2123 53.9686 47.8875 55.7104 51.7988 51.799C55.7102 47.8876 53.9684 41.2124 48.6446 39.7108L40.8865 37.5226C40.0789 37.2948 39.8765 36.3324 40.2109 35.5628C40.2507 35.4713 40.289 35.379 40.3257 35.2859C40.6338 34.506 41.457 33.9688 42.1887 34.3786L49.222 38.3173C54.0483 41.02 60 37.5315 60 32C60 26.4685 54.0483 22.98 49.222 25.6828L42.1889 29.6213C41.4571 30.0311 40.6338 29.4939 40.3257 28.7138C40.2889 28.6208 40.2506 28.5284 40.2108 28.4369C39.8764 27.6674 40.0788 26.7052 40.8862 26.4775L48.6447 24.2892C53.9685 22.7876 55.7103 16.1124 51.799 12.201C47.8876 8.28964 41.2124 10.0314 39.7108 15.3552L37.5227 23.1133C37.2949 23.921 36.3324 24.1234 35.5627 23.7889C35.4712 23.7492 35.379 23.7109 35.286 23.6742C34.506 23.3661 33.9689 22.5429 34.3787 21.8112L38.3173 14.778C41.02 9.95173 37.5315 4 32 4Z" fill="#FFD405" stroke="#131415" stroke-width="2"/>
</svg>
