<svg width="14" height="14" viewBox="0 0 14 14" fill="none" xmlns="http://www.w3.org/2000/svg">
<g clip-path="url(#clip0_7360_5820)">
<path fill-rule="evenodd" clip-rule="evenodd" d="M12.6028 9.32075C13.4339 8.88015 14 8.00619 14 7C14 5.99381 13.4339 5.11985 12.6028 4.67925C12.8789 3.78002 12.6612 2.76172 11.9498 2.05023C11.2383 1.33875 10.22 1.12107 9.32075 1.39719C8.88014 0.566108 8.00618 0 7 0C5.99381 0 5.11984 0.566118 4.67924 1.39721C3.78002 1.1211 2.76173 1.33878 2.05025 2.05026C1.33877 2.76174 1.12109 3.78003 1.3972 4.67925C0.566114 5.11985 0 5.99381 0 7C0 8.00619 0.566114 8.88015 1.39721 9.32075C1.12108 10.22 1.33876 11.2383 2.05025 11.9498C2.76173 12.6612 3.78003 12.8789 4.67925 12.6028C5.11985 13.4339 5.99382 14 7 14C8.00619 14 8.88016 13.4339 9.32076 12.6028C10.22 12.8789 11.2383 12.6612 11.9497 11.9497C12.6612 11.2383 12.8789 10.22 12.6028 9.32075ZM10.3745 5.41724C10.5877 5.12412 10.5229 4.71369 10.2297 4.50052C9.93662 4.28734 9.52619 4.35215 9.31302 4.64526L6.26473 8.83665L4.62029 7.19221C4.36401 6.93593 3.94849 6.93593 3.69221 7.19221C3.43593 7.44849 3.43593 7.86401 3.69221 8.12029L5.87971 10.3078C6.01542 10.4435 6.20374 10.513 6.39508 10.498C6.58642 10.483 6.7616 10.385 6.87448 10.2297L10.3745 5.41724Z" fill="#4A99E9"/>
</g>
<defs>
<clipPath id="clip0_7360_5820">
<rect width="14" height="14" fill="white"/>
</clipPath>
</defs>
</svg>
