<svg width="54" height="70" viewBox="0 0 54 70" fill="none" xmlns="http://www.w3.org/2000/svg">
<path d="M47.927 17.3548L51.6261 10.9477L52.1261 10.0817L51.2601 9.5817L47.2665 7.276L46.4004 6.776L45.9004 7.64202L42.7329 13.1283C41.9236 12.5871 41.0625 12.049 40.1504 11.5138L43.2645 6.12016L43.7645 5.25413L42.8985 4.75413L38.9049 2.44843L38.0388 1.94843L37.5388 2.81445L34.4255 8.20685L29.5508 5.3924L28.6847 4.8924L28.1847 5.75843L2.64117 50.0012L2.14117 50.8672L3.00719 51.3672L7.88197 54.1817L4.87599 59.3882L4.37599 60.2542L5.24201 60.7542L9.23561 63.0599L10.1016 63.5599L10.6016 62.6939L13.6076 57.4874L16.1736 58.9688C16.1969 58.9823 16.2203 58.9957 16.2436 59.0091L13.2376 64.2157L12.7376 65.0818L13.6036 65.5818L17.5972 67.8875L18.4632 68.3875L18.9632 67.5214L22.3862 61.5926C23.2693 61.8199 24.1429 61.9787 25.0069 62.0676L25.0149 62.0684L25.0229 62.0691C27.897 62.3182 30.5418 61.7972 32.9248 60.4847C35.378 59.1524 37.4063 57.049 39.0292 54.2381C40.4142 51.8392 41.1806 49.5699 41.2326 47.4493C41.3245 45.4007 40.8904 43.5028 39.919 41.7815C39.4558 40.9354 38.9011 40.1332 38.2573 39.3745C39.1828 39.4729 40.0873 39.4571 40.9689 39.3217L40.9731 39.3211C42.7827 39.0352 44.4139 38.3349 45.8511 37.2237C47.3427 36.1036 48.6113 34.6151 49.6677 32.7853C51.2885 29.9781 52.0134 27.267 51.7067 24.6857C51.4427 22.1371 50.2159 19.7661 48.1392 17.5773C48.0694 17.5031 47.9987 17.4289 47.927 17.3548ZM18.8317 51.915L13.2081 48.6682L21.4739 34.3514L26.6607 37.346C29.0533 38.7274 30.6572 40.0863 31.5719 41.3948L31.5788 41.4048L31.586 41.4145C32.5324 42.7009 32.9197 43.9408 32.85 45.1586L32.8492 45.1727L32.8488 45.1868C32.8106 46.5087 32.3967 47.8917 31.5572 49.3457C30.2227 51.6571 28.558 53.0725 26.5836 53.7168C24.7346 54.3201 22.199 53.8591 18.8317 51.915ZM42.3691 23.4045L42.3755 23.4184L42.3824 23.432C43.1706 24.9893 43.0683 26.8139 41.7747 29.0545C40.4795 31.2978 38.979 32.51 37.3186 32.9197C35.782 33.2976 33.4079 32.7356 30.0319 30.7865L25.1571 27.972L32.2781 15.6381L36.2793 17.9482C39.6391 19.888 41.5828 21.7255 42.3691 23.4045Z" fill="white" stroke="#131415" stroke-width="2"/>
</svg>
