<svg width="164" height="261" viewBox="0 0 164 261" fill="none" xmlns="http://www.w3.org/2000/svg">
<path d="M18.4239 8.06794L4.87904 69.6928H-26.5004C-31.471 69.6928 -35.5004 73.7223 -35.5004 78.6928V101.14C-35.5004 106.111 -31.471 110.14 -26.5004 110.14H-4.01112L-12.9235 150.689H-42C-46.9706 150.689 -51 154.718 -51 159.689V182.307C-51 187.278 -46.9706 191.307 -42 191.307H-21.8512L-34.5468 249.068C-35.781 254.683 -31.5058 260 -25.7566 260H0.399242C4.62533 260 8.2822 257.06 9.18941 252.932L22.7343 191.307H62.7077L50.0121 249.068C48.7779 254.683 53.0531 260 58.8023 260H84.7859C89.012 260 92.6689 257.06 93.5761 252.932L107.121 191.307H138.5C143.471 191.307 147.5 187.278 147.5 182.307V159.689C147.5 154.718 143.471 150.689 138.5 150.689H116.049L124.961 110.14H154C158.971 110.14 163 106.111 163 101.14V78.6928C163 73.7223 158.971 69.6928 154 69.6928H133.851L146.547 11.932C147.781 6.31688 143.506 1 137.757 1H111.773C107.547 1 103.89 3.94037 102.983 8.06794L89.4379 69.6928H49.4645L62.1601 11.932C63.3943 6.31688 59.1191 1 53.3699 1H27.2141C22.988 1 19.3311 3.94037 18.4239 8.06794ZM31.662 150.689L40.5744 110.14H80.5478L71.6354 150.689H31.662Z" fill="#E4C5FA" stroke="#131415" stroke-width="2"/>
</svg>
