<svg width="112" height="135" viewBox="0 0 112 135" fill="none" xmlns="http://www.w3.org/2000/svg">
<path d="M35.7015 8.06902L29.5627 36.0146H17.896C12.9255 36.0146 8.89602 40.0441 8.89602 45.0146V48.6124C8.89602 53.5829 12.9255 57.6124 17.896 57.6124H24.8183L20.4935 77.3005H10C5.02944 77.3005 1 81.33 1 86.3005V89.9854C1 94.9559 5.02944 98.9854 10 98.9854H15.73L10.4396 123.069C9.20615 128.684 13.4812 134 19.23 134H24.5187C28.7452 134 32.4023 131.059 33.3091 126.931L39.4479 98.9854H58.8072L53.5167 123.069C52.2833 128.684 56.5584 134 62.3071 134H67.5081C71.7346 134 75.3917 131.059 76.2985 126.931L82.4373 98.9854H94.104C99.0745 98.9854 103.104 94.9559 103.104 89.9854V86.3005C103.104 81.33 99.0745 77.3005 94.104 77.3005H87.2008L91.5257 57.6124H102C106.971 57.6124 111 53.5829 111 48.6124V45.0146C111 40.0441 106.971 36.0146 102 36.0146H96.27L101.56 11.931C102.794 6.31611 98.5188 1 92.77 1H87.5691C83.3426 1 79.6855 3.94095 78.7786 8.06902L72.6399 36.0146H53.2806L58.571 11.931C59.8044 6.3161 55.5293 1 49.7806 1H44.4919C40.2654 1 36.6083 3.94095 35.7015 8.06902ZM44.2113 77.3005L48.5362 57.6124H67.8955L63.5706 77.3005H44.2113Z" fill="#C4C4FA" stroke="#131415" stroke-width="2"/>
</svg>
