<svg width="204" height="200" viewBox="0 0 204 200" fill="none" xmlns="http://www.w3.org/2000/svg">
<path d="M77.2288 14.6175C87.9742 -4.87251 116.026 -4.87251 126.771 14.6175C132.583 25.1589 144.448 30.8638 156.326 28.8281C178.288 25.0641 195.778 46.9611 187.216 67.5008C182.585 78.6099 185.515 91.4288 194.515 99.4316C211.155 114.228 204.913 141.533 183.491 147.656C171.904 150.967 163.693 161.247 163.038 173.262C161.827 195.477 136.553 207.629 118.402 194.724C108.585 187.744 95.4153 187.744 85.5981 194.724C67.4471 207.629 42.1734 195.477 40.9619 173.262C40.3066 161.247 32.0957 150.967 20.5091 147.656C-0.913385 141.533 -7.15546 114.228 9.48486 99.4316C18.485 91.4288 21.4154 78.6099 16.7844 67.5008C8.22205 46.9611 25.7119 25.0641 47.6736 28.8281C59.5518 30.8638 71.417 25.1589 77.2288 14.6175Z" fill="#D1F26A"/>
<path d="M175 104C175 144.317 142.317 177 102 177C61.6832 177 29 144.317 29 104C29 63.6832 61.6832 31 102 31C142.317 31 175 63.6832 175 104Z" fill="#D1F26A" stroke="#131415" stroke-width="2"/>
<path d="M117.113 105.612C118.255 109.874 115.72 114.266 111.458 115.408L110.94 113.476C114.133 112.621 116.037 109.323 115.182 106.13L117.113 105.612ZM85.3362 100.327C84.1943 96.0647 86.7298 91.673 90.9917 90.531L91.5092 92.4624C88.316 93.318 86.412 96.6158 87.2676 99.8091L85.3362 100.327ZM93.4376 94.4573L89.1017 101.967C86.0666 107.224 87.871 113.958 93.128 116.993C98.3849 120.028 105.119 118.224 108.154 112.967L114.818 101.425C115.28 100.625 115.007 99.6076 114.207 99.1457C114.018 99.0359 113.808 98.9645 113.591 98.9358C113.374 98.9071 113.153 98.9215 112.941 98.9782C112.73 99.0349 112.531 99.1328 112.357 99.2664C112.184 99.3999 112.038 99.5664 111.928 99.7564L107.762 106.972L106.603 106.303L112.768 95.626C113.229 94.8261 112.957 93.8089 112.157 93.347C111.357 92.8851 110.34 93.1577 109.878 93.9577L104.383 103.476L103.224 102.806L109.718 91.5579C110.18 90.7579 109.907 89.7407 109.107 89.2789C108.307 88.817 107.29 89.0896 106.828 89.8895L100.334 101.138L99.2039 100.475L104.369 91.5282C104.831 90.7283 104.559 89.7111 103.759 89.2492C102.959 88.7873 101.941 89.0599 101.48 89.8599L94.2971 102.3C95.3308 103.085 96.0429 104.22 96.3 105.493C96.5571 106.765 96.3416 108.088 95.6938 109.213L94.5347 108.543C95.064 107.625 95.2072 106.535 94.9329 105.511C94.6586 104.487 93.9893 103.614 93.0718 103.084L92.5004 102.754L96.3367 96.1094C96.7986 95.3094 96.526 94.2922 95.7261 93.8304C95.3386 93.6141 94.8816 93.5586 94.4536 93.6758C94.0256 93.7931 93.6607 94.0737 93.4376 94.4573Z" fill="#131415"/>
<path d="M86.5181 167.457L88.1339 155.62L80.9742 165.349L79.0079 164.601L80.1231 152.573L73.4641 162.492L71.4796 161.738L80.0795 149.701L81.9821 150.425L80.851 162.686L88.1723 152.779L90.0748 153.503L88.4844 168.205L86.5181 167.457Z" fill="#131415"/>
<path d="M63.6932 157.071L55.8284 150.219L56.98 148.898L63.4202 154.508L66.2735 151.233L60.318 146.045L61.4056 144.796L67.3611 149.985L70.5471 146.328L63.9968 140.621L65.1164 139.336L73.0914 146.284L63.6932 157.071Z" fill="#131415"/>
<path d="M49.5645 143.53L48.5156 141.9L59.1133 135.079L55.1919 128.986L56.6251 128.064L61.5954 135.787L49.5645 143.53Z" fill="#131415"/>
<path d="M38.7059 123.239C38.2033 121.499 38.2719 120.016 38.9115 118.79C39.5511 117.565 40.4389 116.731 41.5748 116.288L42.0989 118.103C41.2726 118.565 40.6897 119.179 40.3502 119.946C40.009 120.707 39.9987 121.643 40.3193 122.753C40.7101 124.107 41.5035 125.064 42.6993 125.624C43.887 126.18 45.4634 126.174 47.4284 125.607C49.0378 125.142 50.2366 124.391 51.0248 123.352C51.805 122.309 51.9798 121.042 51.5493 119.551C51.153 118.179 50.3242 117.286 49.0628 116.873C48.3978 116.653 47.586 116.58 46.6274 116.654L46.1032 114.838C47.5973 114.583 48.9655 114.769 50.2079 115.397C51.7021 116.148 52.7167 117.45 53.2516 119.303C53.7128 120.9 53.6166 122.381 52.9631 123.745C52.0967 125.543 50.3286 126.827 47.6587 127.598C45.6313 128.184 43.814 128.127 42.2066 127.429C40.4618 126.676 39.2949 125.279 38.7059 123.239Z" fill="#131415"/>
<path d="M35.5809 101.709C35.7217 99.187 36.6363 97.3652 38.3248 96.2434C39.6418 95.3675 41.2857 94.9846 43.2565 95.0947C45.3893 95.2138 47.1321 95.8541 48.4849 97.0157C50.0736 98.379 50.8022 100.237 50.6708 102.591C50.548 104.788 49.7255 106.475 48.2031 107.652C46.7402 108.695 44.939 109.157 42.7997 109.038C40.8678 108.93 39.2415 108.358 37.9207 107.322C36.2261 105.991 35.4462 104.12 35.5809 101.709ZM48.9529 102.26C49.0481 100.556 48.5075 99.2897 47.3311 98.4632C46.1485 97.6298 44.7631 97.1687 43.1748 97.08C41.4958 96.9863 40.1195 97.3516 39.046 98.1761C37.9728 98.9941 37.3937 100.165 37.3086 101.688C37.2261 103.166 37.6676 104.401 38.6333 105.391C39.5925 106.381 41.0607 106.931 43.038 107.042C44.6198 107.13 45.9775 106.806 47.1112 106.069C48.2387 105.326 48.8526 104.056 48.9529 102.26Z" fill="#131415"/>
<path d="M37.7618 85.6904L38.8612 83.1417L51.5962 84.1586L42.1053 75.6206L43.193 73.0987L56.3303 78.7652L55.6012 80.4554L47.8477 77.1111C47.5794 76.9954 47.1378 76.7978 46.5229 76.5185C45.908 76.2391 45.2458 75.9464 44.5363 75.6404L54.0004 84.1668L53.2405 85.9285L40.5323 84.9232L40.9348 85.0968C41.2567 85.2356 41.7512 85.4418 42.4181 85.7153C43.0816 85.9803 43.5684 86.1797 43.8784 86.3134L51.632 89.6578L50.8991 91.3569L37.7618 85.6904Z" fill="#131415"/>
<path d="M48.168 64.6184L55.1911 56.9061L56.4873 58.0865L50.7363 64.4018L53.948 67.3265L59.2662 61.4864L60.4903 62.6012L55.1721 68.4412L58.7582 71.7069L64.6076 65.2836L65.8678 66.4312L58.7462 74.2515L48.168 64.6184Z" fill="#131415"/>
<path d="M62.7324 50.4951L64.3745 49.394L66.9944 53.301L70.0479 58.7115L69.2228 59.2648L65.3523 54.4022L62.7324 50.4951ZM69.5724 60.6955L71.1821 59.6161L72.3103 61.2986L70.7006 62.378L69.5724 60.6955Z" fill="#131415"/>
<path d="M116.357 40.3926L114.741 52.23L121.901 42.5012L123.867 43.249L122.752 55.2768L129.411 45.3575L131.395 46.1123L122.796 58.1485L120.893 57.4249L122.024 45.1635L114.703 55.0705L112.8 54.3469L114.391 39.6448L116.357 40.3926Z" fill="#131415"/>
<path d="M139.182 50.7788L147.046 57.6307L145.895 58.9525L139.455 53.3418L136.601 56.617L142.557 61.8054L141.469 63.0538L135.514 57.8653L132.328 61.5224L138.878 67.2291L137.759 68.5142L129.784 61.5663L139.182 50.7788Z" fill="#131415"/>
<path d="M153.311 64.3203L154.359 65.9501L143.762 72.7705L147.683 78.8638L146.25 79.7862L141.28 72.0631L153.311 64.3203Z" fill="#131415"/>
<path d="M164.171 84.6108C164.674 86.3512 164.605 87.8342 163.965 89.0596C163.326 90.2851 162.438 91.1192 161.302 91.5621L160.778 89.7468C161.604 89.2852 162.187 88.6708 162.527 87.9038C162.868 87.1429 162.878 86.2073 162.558 85.0969C162.167 83.7433 161.373 82.7863 160.178 82.226C158.99 81.6701 157.414 81.6758 155.449 82.2432C153.839 82.7079 152.64 83.4596 151.852 84.4981C151.072 85.5412 150.897 86.8081 151.328 88.299C151.724 89.6714 152.553 90.5641 153.814 90.977C154.479 91.1973 155.291 91.2704 156.25 91.1963L156.774 93.0116C155.28 93.2673 153.911 93.0812 152.669 92.4532C151.175 91.702 150.16 90.4 149.625 88.5473C149.164 86.9503 149.26 85.4695 149.914 84.1049C150.78 82.3071 152.548 81.0228 155.218 80.2519C157.246 79.6665 159.063 79.7229 160.67 80.4212C162.415 81.1744 163.582 82.571 164.171 84.6108Z" fill="#131415"/>
<path d="M167.294 106.141C167.153 108.663 166.239 110.485 164.55 111.607C163.233 112.483 161.589 112.866 159.619 112.755C157.486 112.636 155.743 111.996 154.39 110.834C152.801 109.471 152.073 107.613 152.204 105.26C152.327 103.062 153.15 101.375 154.672 100.198C156.135 99.1548 157.936 98.6929 160.075 98.8124C162.007 98.9203 163.634 99.4923 164.954 100.529C166.649 101.859 167.429 103.73 167.294 106.141ZM153.922 105.59C153.827 107.295 154.368 108.56 155.544 109.387C156.726 110.22 158.112 110.681 159.7 110.77C161.379 110.864 162.756 110.498 163.829 109.674C164.902 108.856 165.481 107.685 165.566 106.162C165.649 104.684 165.207 103.45 164.242 102.459C163.283 101.469 161.814 100.919 159.837 100.809C158.255 100.72 156.897 101.044 155.764 101.781C154.636 102.524 154.022 103.794 153.922 105.59Z" fill="#131415"/>
<path d="M165.113 122.159L164.014 124.708L151.279 123.691L160.77 132.229L159.682 134.751L146.545 129.085L147.274 127.394L155.027 130.739C155.296 130.854 155.737 131.052 156.352 131.331C156.967 131.611 157.629 131.903 158.339 132.209L148.875 123.683L149.635 121.921L162.343 122.927L161.94 122.753C161.618 122.614 161.124 122.408 160.457 122.135C159.794 121.87 159.307 121.67 158.997 121.536L151.243 118.192L151.976 116.493L165.113 122.159Z" fill="#131415"/>
<path d="M154.709 143.231L147.686 150.944L146.39 149.763L152.141 143.448L148.929 140.523L143.611 146.363L142.387 145.249L147.705 139.409L144.119 136.143L138.269 142.566L137.009 141.419L144.131 133.598L154.709 143.231Z" fill="#131415"/>
<path d="M140.145 157.355L138.502 158.456L135.883 154.549L132.829 149.139L133.654 148.586L137.525 153.448L140.145 157.355ZM133.305 147.155L131.695 148.234L130.567 146.552L132.176 145.472L133.305 147.155Z" fill="#131415"/>
<path fill-rule="evenodd" clip-rule="evenodd" d="M104.314 47.401C94.5111 46.8642 84.7398 48.9172 75.982 53.3536C75.5966 53.5488 75.126 53.3947 74.9307 53.0093C74.7355 52.6239 74.8897 52.1533 75.275 51.9581C84.2778 47.3975 94.3225 45.2871 104.399 45.839C104.831 45.8626 105.161 46.2314 105.138 46.6628C105.114 47.0941 104.745 47.4247 104.314 47.401Z" fill="#131415"/>
<path fill-rule="evenodd" clip-rule="evenodd" d="M96.8976 159.003C106.685 159.768 116.502 157.944 125.36 153.712C125.75 153.526 126.217 153.691 126.403 154.081C126.59 154.471 126.425 154.938 126.035 155.124C116.928 159.474 106.837 161.349 96.7757 160.563C96.345 160.529 96.0232 160.153 96.0568 159.722C96.0905 159.291 96.4669 158.97 96.8976 159.003Z" fill="#131415"/>
</svg>
