<svg width="97" height="97" viewBox="0 0 97 97" fill="none" xmlns="http://www.w3.org/2000/svg">
<mask id="path-1-inside-1_7360_10921" fill="white">
<path fill-rule="evenodd" clip-rule="evenodd" d="M48.5002 0C38.9188 0 32.8763 10.3092 37.5578 18.6691L44.3802 30.8518C45.0898 32.119 44.1596 33.5447 42.8088 34.0782C42.6474 34.1419 42.4874 34.2083 42.3287 34.2772C40.9956 34.8565 39.3286 34.506 38.934 33.107L35.1437 19.6689C32.5428 10.4473 20.9803 7.43021 14.2053 14.2053C7.43022 20.9803 10.4473 32.5428 19.6689 35.1437L33.1076 38.9341C34.5062 39.3286 34.8567 40.9953 34.2775 42.3281C34.2085 42.4869 34.142 42.6472 34.0782 42.8087C33.5447 44.1595 32.1191 45.0896 30.8519 44.38L18.6691 37.5576C10.3092 32.8761 0 38.9186 0 48.5C0 58.0814 10.3092 64.1239 18.6691 59.4424L30.8516 52.6202C32.119 51.9104 33.5448 52.8407 34.0784 54.1917C34.1421 54.3531 34.2085 54.5131 34.2774 54.6717C34.8566 56.0047 34.5062 57.6714 33.1074 58.0659L19.669 61.8563C10.4474 64.4572 7.43035 76.0197 14.2054 82.7947C20.9805 89.5698 32.5429 86.5527 35.1439 77.3311L38.9343 63.8925C39.3288 62.4938 40.9954 62.1434 42.3282 62.7225C42.4869 62.7915 42.647 62.8579 42.8084 62.9216C44.1594 63.4553 45.0897 64.8811 44.3799 66.1485L37.5578 78.3309C32.8763 86.6908 38.9188 97 48.5001 97C58.0815 97 64.124 86.6908 59.4425 78.3309L52.6202 66.1482C51.9105 64.881 52.8407 63.4552 54.1916 62.9217C54.3531 62.8579 54.5133 62.7914 54.6721 62.7224C56.0048 62.1433 57.6714 62.4937 58.0658 63.8923L61.8563 77.3311C64.4572 86.5527 76.0197 89.5697 82.7947 82.7947C89.5698 76.0196 86.5527 64.4572 77.3311 61.8562L63.893 58.066C62.494 57.6714 62.1435 56.0044 62.7228 54.6713C62.7916 54.5128 62.8579 54.3529 62.9216 54.1917C63.4553 52.8407 64.8812 51.9103 66.1486 52.6201L78.3313 59.4424C86.6911 64.1239 97.0004 58.0814 97.0004 48.5C97.0004 38.9186 86.6911 32.8761 78.3313 37.5576L66.1489 44.3798C64.8813 45.0896 63.4552 44.1591 62.9215 42.8079C62.8578 42.6467 62.7914 42.4867 62.7225 42.3282C62.1434 40.9954 62.4938 39.3287 63.8925 38.9342L77.3314 35.1438C86.553 32.5428 89.57 20.9804 82.795 14.2053C76.0199 7.43026 64.4575 10.4473 61.8565 19.6689L58.0663 33.107C57.6717 34.5061 56.0045 34.8565 54.6713 34.2772C54.5129 34.2084 54.3531 34.1422 54.192 34.0785C52.841 33.5448 51.9107 32.1189 52.6204 30.8515L59.4426 18.6691C64.1241 10.3092 58.0816 0 48.5002 0Z"/>
</mask>
<path fill-rule="evenodd" clip-rule="evenodd" d="M48.5002 0C38.9188 0 32.8763 10.3092 37.5578 18.6691L44.3802 30.8518C45.0898 32.119 44.1596 33.5447 42.8088 34.0782C42.6474 34.1419 42.4874 34.2083 42.3287 34.2772C40.9956 34.8565 39.3286 34.506 38.934 33.107L35.1437 19.6689C32.5428 10.4473 20.9803 7.43021 14.2053 14.2053C7.43022 20.9803 10.4473 32.5428 19.6689 35.1437L33.1076 38.9341C34.5062 39.3286 34.8567 40.9953 34.2775 42.3281C34.2085 42.4869 34.142 42.6472 34.0782 42.8087C33.5447 44.1595 32.1191 45.0896 30.8519 44.38L18.6691 37.5576C10.3092 32.8761 0 38.9186 0 48.5C0 58.0814 10.3092 64.1239 18.6691 59.4424L30.8516 52.6202C32.119 51.9104 33.5448 52.8407 34.0784 54.1917C34.1421 54.3531 34.2085 54.5131 34.2774 54.6717C34.8566 56.0047 34.5062 57.6714 33.1074 58.0659L19.669 61.8563C10.4474 64.4572 7.43035 76.0197 14.2054 82.7947C20.9805 89.5698 32.5429 86.5527 35.1439 77.3311L38.9343 63.8925C39.3288 62.4938 40.9954 62.1434 42.3282 62.7225C42.4869 62.7915 42.647 62.8579 42.8084 62.9216C44.1594 63.4553 45.0897 64.8811 44.3799 66.1485L37.5578 78.3309C32.8763 86.6908 38.9188 97 48.5001 97C58.0815 97 64.124 86.6908 59.4425 78.3309L52.6202 66.1482C51.9105 64.881 52.8407 63.4552 54.1916 62.9217C54.3531 62.8579 54.5133 62.7914 54.6721 62.7224C56.0048 62.1433 57.6714 62.4937 58.0658 63.8923L61.8563 77.3311C64.4572 86.5527 76.0197 89.5697 82.7947 82.7947C89.5698 76.0196 86.5527 64.4572 77.3311 61.8562L63.893 58.066C62.494 57.6714 62.1435 56.0044 62.7228 54.6713C62.7916 54.5128 62.8579 54.3529 62.9216 54.1917C63.4553 52.8407 64.8812 51.9103 66.1486 52.6201L78.3313 59.4424C86.6911 64.1239 97.0004 58.0814 97.0004 48.5C97.0004 38.9186 86.6911 32.8761 78.3313 37.5576L66.1489 44.3798C64.8813 45.0896 63.4552 44.1591 62.9215 42.8079C62.8578 42.6467 62.7914 42.4867 62.7225 42.3282C62.1434 40.9954 62.4938 39.3287 63.8925 38.9342L77.3314 35.1438C86.553 32.5428 89.57 20.9804 82.795 14.2053C76.0199 7.43026 64.4575 10.4473 61.8565 19.6689L58.0663 33.107C57.6717 34.5061 56.0045 34.8565 54.6713 34.2772C54.5129 34.2084 54.3531 34.1422 54.192 34.0785C52.841 33.5448 51.9107 32.1189 52.6204 30.8515L59.4426 18.6691C64.1241 10.3092 58.0816 0 48.5002 0Z" fill="#FFD405"/>
<path d="M37.5578 18.6691L35.8128 19.6463L37.5578 18.6691ZM35.1437 19.6689L37.0686 19.1259V19.1259L35.1437 19.6689ZM14.2053 14.2053L15.6195 15.6195L15.6195 15.6195L14.2053 14.2053ZM19.6689 35.1437L20.2118 33.2188H20.2118L19.6689 35.1437ZM18.6691 37.5576L17.6918 39.3026L18.6691 37.5576ZM18.6691 59.4424L17.6919 57.6974L18.6691 59.4424ZM19.669 61.8563L20.2119 63.7812H20.2119L19.669 61.8563ZM14.2054 82.7947L12.7912 84.2089H12.7912L14.2054 82.7947ZM35.1439 77.3311L33.219 76.7882L35.1439 77.3311ZM37.5578 78.3309L39.3028 79.3082L37.5578 78.3309ZM59.4425 78.3309L61.1875 77.3537V77.3537L59.4425 78.3309ZM61.8563 77.3311L63.7812 76.7882L61.8563 77.3311ZM82.7947 82.7947L84.2089 84.2089L82.7947 82.7947ZM77.3311 61.8562L76.7882 63.7811L77.3311 61.8562ZM78.3313 59.4424L79.3085 57.6974L78.3313 59.4424ZM78.3313 37.5576L79.3085 39.3026L78.3313 37.5576ZM77.3314 35.1438L77.8743 37.0687L77.3314 35.1438ZM82.795 14.2053L84.2092 12.7911L82.795 14.2053ZM61.8565 19.6689L63.7814 20.2118V20.2118L61.8565 19.6689ZM59.4426 18.6691L57.6976 17.6919L59.4426 18.6691ZM54.192 34.0785L53.4572 35.9386L54.192 34.0785ZM54.6713 34.2772L53.8743 36.1116L54.6713 34.2772ZM62.7225 42.3282L64.5568 41.5311L62.7225 42.3282ZM62.9215 42.8079L61.0613 43.5427L62.9215 42.8079ZM62.9216 54.1917L61.0615 53.457L62.9216 54.1917ZM54.1916 62.9217L54.9263 64.7818L54.1916 62.9217ZM42.3282 62.7225L43.1253 60.8882L42.3282 62.7225ZM34.2774 54.6717L32.4431 55.4688L34.2774 54.6717ZM34.0784 54.1917L32.2182 54.9264L34.0784 54.1917ZM34.0782 42.8087L35.9384 43.5434L34.0782 42.8087ZM34.2775 42.3281L36.1118 43.1252L34.2775 42.3281ZM42.3287 34.2772L43.1257 36.1116L42.3287 34.2772ZM42.8084 62.9216L42.0737 64.7818L42.8084 62.9216ZM42.8088 34.0782L42.0741 32.218L42.8088 34.0782ZM39.3028 17.6919C35.3679 10.6652 40.4468 2 48.5002 2V-2C37.3909 -2 30.3848 9.95329 35.8128 19.6463L39.3028 17.6919ZM46.1252 29.8746L39.3028 17.6919L35.8128 19.6463L42.6352 31.829L46.1252 29.8746ZM43.1257 36.1116C43.2638 36.0516 43.4031 35.9938 43.5435 35.9384L42.0741 32.218C41.8918 32.29 41.7109 32.365 41.5317 32.4429L43.1257 36.1116ZM33.2188 20.2118L37.0091 33.65L40.8589 32.5641L37.0686 19.1259L33.2188 20.2118ZM15.6195 15.6195C21.3141 9.92486 31.0326 12.4608 33.2188 20.2118L37.0686 19.1259C34.0529 8.43374 20.6466 4.93556 12.7911 12.7911L15.6195 15.6195ZM20.2118 33.2188C12.4608 31.0326 9.92487 21.3141 15.6195 15.6195L12.7911 12.7911C4.93557 20.6465 8.43375 34.0529 19.1259 37.0686L20.2118 33.2188ZM33.6505 37.0092L20.2118 33.2188L19.1259 37.0686L32.5647 40.859L33.6505 37.0092ZM35.9384 43.5434C35.9939 43.4028 36.0517 43.2634 36.1118 43.1252L32.4432 41.531C32.3652 41.7104 32.2901 41.8915 32.2181 42.074L35.9384 43.5434ZM17.6918 39.3026L29.8747 46.125L31.8291 42.635L19.6463 35.8126L17.6918 39.3026ZM2 48.5C2 40.4466 10.6652 35.3677 17.6918 39.3026L19.6463 35.8126C9.95329 30.3845 -2 37.3907 -2 48.5H2ZM17.6919 57.6974C10.6652 61.6323 2 56.5534 2 48.5H-2C-2 59.6093 9.95329 66.6155 19.6463 61.1874L17.6919 57.6974ZM29.8744 50.8751L17.6919 57.6974L19.6463 61.1874L31.8288 54.3652L29.8744 50.8751ZM36.1117 53.8747C36.0517 53.7366 35.994 53.5974 35.9385 53.457L32.2182 54.9264C32.2902 55.1088 32.3652 55.2896 32.4431 55.4688L36.1117 53.8747ZM20.2119 63.7812L33.6503 59.9908L32.5645 56.141L19.1261 59.9314L20.2119 63.7812ZM15.6196 81.3805C9.925 75.6859 12.4609 65.9673 20.2119 63.7812L19.1261 59.9314C8.43388 62.9471 4.9357 76.3534 12.7912 84.2089L15.6196 81.3805ZM33.219 76.7882C31.0328 84.5392 21.3142 87.0751 15.6196 81.3805L12.7912 84.2089C20.6467 92.0644 34.053 88.5662 37.0688 77.8741L33.219 76.7882ZM37.0094 63.3495L33.219 76.7882L37.0688 77.8741L40.8592 64.4354L37.0094 63.3495ZM43.5431 61.0615C43.4027 61.006 43.2634 60.9483 43.1253 60.8882L41.5311 64.5568C41.7104 64.6348 41.8913 64.7098 42.0737 64.7818L43.5431 61.0615ZM39.3028 79.3082L46.125 67.1257L42.6349 65.1713L35.8127 77.3537L39.3028 79.3082ZM48.5001 95C40.4467 95 35.3678 86.3348 39.3028 79.3082L35.8127 77.3537C30.3847 87.0467 37.3908 99 48.5001 99V95ZM57.6975 79.3081C61.6324 86.3348 56.5536 95 48.5001 95V99C59.6095 99 66.6156 87.0467 61.1875 77.3537L57.6975 79.3081ZM50.8752 67.1254L57.6975 79.3082L61.1875 77.3537L54.3652 65.171L50.8752 67.1254ZM53.875 60.8881C53.7368 60.9482 53.5974 61.006 53.4569 61.0615L54.9263 64.7818C55.1088 64.7097 55.2898 64.6347 55.4692 64.5567L53.875 60.8881ZM63.7812 76.7882L59.9907 63.3493L56.1409 64.4352L59.9314 77.874L63.7812 76.7882ZM81.3805 81.3805C75.6859 87.0751 65.9673 84.5392 63.7812 76.7882L59.9314 77.874C62.9471 88.5662 76.3534 92.0644 84.2089 84.2089L81.3805 81.3805ZM76.7882 63.7811C84.5392 65.9673 87.0751 75.6859 81.3805 81.3805L84.2089 84.2089C92.0644 76.3534 88.5662 62.9471 77.8741 59.9313L76.7882 63.7811ZM63.35 59.9909L76.7882 63.7811L77.8741 59.9313L64.4359 56.1411L63.35 59.9909ZM61.0615 53.457C61.0061 53.5972 60.9484 53.7363 60.8884 53.8743L64.5571 55.4683C64.6349 55.2892 64.7098 55.1086 64.7818 54.9265L61.0615 53.457ZM79.3085 57.6974L67.1258 50.8751L65.1714 54.3651L77.3541 61.1874L79.3085 57.6974ZM95.0004 48.5C95.0004 56.5534 86.3352 61.6323 79.3085 57.6974L77.3541 61.1874C87.0471 66.6155 99.0004 59.6094 99.0004 48.5H95.0004ZM79.3085 39.3026C86.3352 35.3677 95.0004 40.4466 95.0004 48.5H99.0004C99.0004 37.3907 87.0471 30.3845 77.3541 35.8126L79.3085 39.3026ZM67.1261 46.1248L79.3085 39.3026L77.3541 35.8126L65.1717 42.6348L67.1261 46.1248ZM60.8882 43.1253C60.9482 43.2632 61.0059 43.4024 61.0613 43.5427L64.7816 42.0731C64.7096 41.8909 64.6347 41.7102 64.5568 41.5311L60.8882 43.1253ZM76.7885 33.2189L63.3496 37.0093L64.4354 40.8591L77.8743 37.0687L76.7885 33.2189ZM81.3807 15.6195C87.0754 21.3142 84.5395 31.0327 76.7885 33.2189L77.8743 37.0687C88.5665 34.0529 92.0647 20.6466 84.2092 12.7911L81.3807 15.6195ZM63.7814 20.2118C65.9676 12.4608 75.6861 9.92491 81.3807 15.6195L84.2092 12.7911C76.3537 4.93562 62.9473 8.43379 59.9316 19.126L63.7814 20.2118ZM59.9912 33.6499L63.7814 20.2118L59.9316 19.126L56.1414 32.5641L59.9912 33.6499ZM53.4572 35.9386C53.5974 35.994 53.7364 36.0517 53.8743 36.1116L55.4683 32.4429C55.2894 32.3651 55.1088 32.2903 54.9268 32.2184L53.4572 35.9386ZM57.6976 17.6919L50.8754 29.8743L54.3654 31.8288L61.1876 19.6463L57.6976 17.6919ZM48.5002 2C56.5536 2 61.6325 10.6652 57.6976 17.6919L61.1876 19.6463C66.6157 9.95329 59.6096 -2 48.5002 -2V2ZM54.9268 32.2184C54.7964 32.1669 54.677 32.0936 54.5797 32.0101C54.4815 31.9257 54.4237 31.8465 54.3949 31.793C54.3671 31.7413 54.375 31.7313 54.3759 31.7622C54.3769 31.8026 54.3637 31.8318 54.3654 31.8288L50.8754 29.8743C50.1359 31.1948 50.2877 32.6008 50.8719 33.6874C51.431 34.7271 52.3891 35.5167 53.4572 35.9386L54.9268 32.2184ZM56.1414 32.5641C56.1403 32.5677 56.1515 32.5379 56.1808 32.5102C56.2031 32.489 56.2016 32.5017 56.1454 32.5186C56.0872 32.536 55.9902 32.5512 55.8612 32.5413C55.7333 32.5316 55.597 32.4988 55.4683 32.4429L53.8743 36.1116C54.9284 36.5696 56.1649 36.6893 57.2962 36.3494C58.4784 35.9943 59.5802 35.107 59.9912 33.6499L56.1414 32.5641ZM64.5568 41.5311C64.501 41.4026 64.4683 41.2664 64.4585 41.1387C64.4486 41.0097 64.4638 40.9129 64.4812 40.8548C64.4981 40.7987 64.5108 40.7972 64.4895 40.8196C64.4617 40.8489 64.4318 40.8601 64.4354 40.8591L63.3496 37.0093C61.8927 37.4202 61.0055 38.5219 60.6504 39.7039C60.3106 40.835 60.4302 42.0713 60.8882 43.1253L64.5568 41.5311ZM65.1717 42.6348C65.1686 42.6365 65.1977 42.6233 65.2381 42.6244C65.269 42.6252 65.2589 42.6331 65.2072 42.6053C65.1536 42.5765 65.0744 42.5187 64.99 42.4204C64.9064 42.3231 64.8331 42.2036 64.7816 42.0731L61.0613 43.5427C61.4833 44.6109 62.2729 45.5691 63.3128 46.1282C64.3994 46.7125 65.8055 46.8643 67.1261 46.1248L65.1717 42.6348ZM64.7818 54.9265C64.8333 54.7961 64.9065 54.6766 64.9901 54.5793C65.0744 54.4811 65.1536 54.4233 65.2071 54.3946C65.2588 54.3668 65.2688 54.3747 65.2379 54.3755C65.1975 54.3766 65.1683 54.3634 65.1714 54.3651L67.1258 50.8751C65.8053 50.1356 64.3993 50.2873 63.3127 50.8716C62.273 51.4307 61.4834 52.3888 61.0615 53.457L64.7818 54.9265ZM64.4359 56.1411C64.4323 56.1401 64.4621 56.1512 64.4898 56.1805C64.511 56.2029 64.4984 56.2014 64.4815 56.1451C64.464 56.087 64.4488 55.9901 64.4587 55.861C64.4685 55.7332 64.5012 55.5969 64.5571 55.4683L60.8884 53.8743C60.4304 54.9284 60.3108 56.1648 60.6506 57.296C61.0058 58.4781 61.893 59.5799 63.35 59.9909L64.4359 56.1411ZM54.3652 65.171C54.3635 65.168 54.3767 65.1972 54.3757 65.2376C54.3748 65.2686 54.3669 65.2586 54.3947 65.207C54.4234 65.1535 54.4812 65.0743 54.5793 64.99C54.6766 64.9065 54.796 64.8333 54.9263 64.7818L53.4569 61.0615C52.3888 61.4834 51.4308 62.2729 50.8717 63.3126C50.2875 64.3991 50.1357 65.805 50.8752 67.1254L54.3652 65.171ZM40.8592 64.4354C40.8602 64.4318 40.849 64.4617 40.8197 64.4895C40.7972 64.5108 40.7987 64.4981 40.8548 64.4812C40.9129 64.4638 41.0097 64.4486 41.1387 64.4585C41.2664 64.4683 41.4026 64.501 41.5311 64.5568L43.1253 60.8882C42.0713 60.4302 40.835 60.3106 39.7039 60.6504C38.5219 61.0055 37.4203 61.8927 37.0094 63.3495L40.8592 64.4354ZM32.4431 55.4688C32.499 55.5974 32.5317 55.7336 32.5415 55.8614C32.5513 55.9904 32.5362 56.0872 32.5187 56.1453C32.5019 56.2015 32.4892 56.2029 32.5104 56.1805C32.5382 56.1512 32.5681 56.14 32.5645 56.141L33.6503 59.9908C35.1072 59.5799 35.9945 58.4782 36.3496 57.2962C36.6894 56.1651 36.5697 54.9287 36.1117 53.8747L32.4431 55.4688ZM31.8288 54.3652C31.8319 54.3635 31.8027 54.3767 31.7622 54.3756C31.7313 54.3748 31.7413 54.3669 31.7929 54.3947C31.8464 54.4234 31.9257 54.4812 32.01 54.5794C32.0935 54.6766 32.1667 54.7961 32.2182 54.9264L35.9385 53.457C35.5166 52.3888 34.7271 51.4308 33.6873 50.8717C32.6008 50.2874 31.1949 50.1357 29.8744 50.8751L31.8288 54.3652ZM32.2181 42.074C32.1666 42.2043 32.0934 42.3237 32.0099 42.4209C31.9256 42.5191 31.8465 42.5768 31.793 42.6055C31.7414 42.6333 31.7314 42.6254 31.7624 42.6245C31.8029 42.6235 31.8321 42.6367 31.8291 42.635L29.8747 46.125C31.1951 46.8644 32.601 46.7127 33.6874 46.1285C34.7271 45.5695 35.5165 44.6115 35.9384 43.5434L32.2181 42.074ZM55.4692 64.5567C55.5977 64.5009 55.7339 64.4681 55.8616 64.4584C55.9905 64.4485 56.0873 64.4637 56.1454 64.4811C56.2015 64.498 56.2029 64.5106 56.1805 64.4893C56.1511 64.4615 56.1399 64.4316 56.1409 64.4352L59.9907 63.3493C59.5798 61.8926 58.4782 61.0054 57.2963 60.6503C56.1652 60.3105 54.9289 60.4301 53.875 60.8881L55.4692 64.5567ZM32.5647 40.859C32.5682 40.86 32.5383 40.8488 32.5106 40.8195C32.4893 40.7971 32.5019 40.7985 32.5188 40.8547C32.5363 40.9128 32.5514 41.0096 32.5415 41.1385C32.5318 41.2663 32.4991 41.4024 32.4432 41.531L36.1118 43.1252C36.5698 42.0712 36.6895 40.8349 36.3497 39.7038C35.9945 38.5218 35.1073 37.4201 33.6505 37.0092L32.5647 40.859ZM41.5317 32.4429C41.403 32.4988 41.2668 32.5315 41.1389 32.5413C41.0099 32.5512 40.913 32.536 40.8548 32.5185C40.7986 32.5017 40.7971 32.489 40.8195 32.5102C40.8488 32.5379 40.8599 32.5678 40.8589 32.5641L37.0091 33.65C37.42 35.107 38.5218 35.9943 39.7039 36.3494C40.8351 36.6892 42.0716 36.5696 43.1257 36.1116L41.5317 32.4429ZM42.0737 64.7818C42.204 64.8333 42.3235 64.9065 42.4207 64.9901C42.5189 65.0744 42.5767 65.1536 42.6054 65.2071C42.6332 65.2588 42.6253 65.2688 42.6245 65.2378C42.6234 65.1974 42.6366 65.1682 42.6349 65.1712L46.125 67.1257C46.8644 65.8052 46.7127 64.3992 46.1284 63.3127C45.5693 62.273 44.6113 61.4834 43.5431 61.0615L42.0737 64.7818ZM42.6352 31.829C42.6369 31.832 42.6236 31.8028 42.6247 31.7623C42.6255 31.7313 42.6335 31.7413 42.6057 31.7929C42.5769 31.8464 42.5192 31.9256 42.4211 32.0098C42.3238 32.0933 42.2045 32.1665 42.0741 32.218L43.5435 35.9384C44.6116 35.5165 45.5696 34.727 46.1287 33.6873C46.7129 32.6009 46.8646 31.195 46.1252 29.8746L42.6352 31.829Z" fill="#131415" mask="url(#path-1-inside-1_7360_10921)"/>
</svg>
