<svg width="124" height="121" viewBox="0 0 124 121" fill="none" xmlns="http://www.w3.org/2000/svg">
<mask id="path-1-inside-1_7360_10953" fill="white">
<path fill-rule="evenodd" clip-rule="evenodd" d="M0.346472 116.399C0.249704 118.112 1.60548 119.557 3.32043 119.569L81.9386 120.126C84.9647 120.147 86.1155 116.183 83.5483 114.581L54.0316 96.1587C52.3609 95.116 52.131 92.7737 53.5671 91.4261L61.6996 83.7945C62.9078 82.6608 64.8063 82.7211 65.9401 83.9293L66.0196 84.014C66.9433 84.9984 68.4108 85.2445 69.6053 84.6154L122.197 56.9145C124.518 55.692 124.263 52.2891 121.785 51.4269L87.6846 39.5599C86.7556 39.2366 86.0441 38.4784 85.7804 37.5307L76.1025 2.74549C75.3993 0.218076 72.0196 -0.252988 70.6521 1.98582L39.6678 52.7128C38.9642 53.8649 39.1166 55.345 40.0404 56.3294L40.1198 56.4141C41.2536 57.6223 41.1933 59.5208 39.9851 60.6546L31.7876 68.3471C30.3516 69.6947 28.0286 69.3165 27.0941 67.583L10.4186 36.6505C8.98255 33.9867 4.95337 34.8834 4.78262 37.9048L0.346472 116.399Z"/>
</mask>
<path fill-rule="evenodd" clip-rule="evenodd" d="M0.346472 116.399C0.249704 118.112 1.60548 119.557 3.32043 119.569L81.9386 120.126C84.9647 120.147 86.1155 116.183 83.5483 114.581L54.0316 96.1587C52.3609 95.116 52.131 92.7737 53.5671 91.4261L61.6996 83.7945C62.9078 82.6608 64.8063 82.7211 65.9401 83.9293L66.0196 84.014C66.9433 84.9984 68.4108 85.2445 69.6053 84.6154L122.197 56.9145C124.518 55.692 124.263 52.2891 121.785 51.4269L87.6846 39.5599C86.7556 39.2366 86.0441 38.4784 85.7804 37.5307L76.1025 2.74549C75.3993 0.218076 72.0196 -0.252988 70.6521 1.98582L39.6678 52.7128C38.9642 53.8649 39.1166 55.345 40.0404 56.3294L40.1198 56.4141C41.2536 57.6223 41.1933 59.5208 39.9851 60.6546L31.7876 68.3471C30.3516 69.6947 28.0286 69.3165 27.0941 67.583L10.4186 36.6505C8.98255 33.9867 4.95337 34.8834 4.78262 37.9048L0.346472 116.399Z" fill="#E4C5FA"/>
<path d="M10.4186 36.6505L8.65808 37.5995L10.4186 36.6505ZM4.78262 37.9048L2.78581 37.7919L4.78262 37.9048ZM27.0941 67.583L28.8545 66.634L27.0941 67.583ZM39.6678 52.7128L41.3746 53.7553L39.6678 52.7128ZM70.6521 1.98582L68.9453 0.943303L70.6521 1.98582ZM87.6846 39.5599L88.342 37.671L87.6846 39.5599ZM69.6053 84.6154L70.5373 86.385L69.6053 84.6154ZM54.0316 96.1587L55.0905 94.4621L54.0316 96.1587ZM3.32043 119.569L3.30627 121.569L3.32043 119.569ZM0.346472 116.399L-1.65034 116.287L0.346472 116.399ZM81.9386 120.126L81.9245 122.126L81.9386 120.126ZM83.5483 114.581L82.4894 116.277L83.5483 114.581ZM81.9528 118.126L3.3346 117.569L3.30627 121.569L81.9245 122.126L81.9528 118.126ZM52.9726 97.8554L82.4894 116.277L84.6072 112.884L55.0905 94.4621L52.9726 97.8554ZM54.9357 92.8845L63.0682 85.253L60.331 82.3361L52.1985 89.9677L54.9357 92.8845ZM64.4817 85.2979L64.5611 85.3826L67.478 82.6454L67.3985 82.5607L64.4817 85.2979ZM70.5373 86.385L123.129 58.6841L121.265 55.145L68.6732 82.8459L70.5373 86.385ZM122.442 49.538L88.342 37.671L87.0273 41.4488L121.128 53.3158L122.442 49.538ZM87.7072 36.9946L78.0293 2.20941L74.1757 3.28156L83.8536 38.0667L87.7072 36.9946ZM68.9453 0.943303L37.961 51.6703L41.3746 53.7553L72.3589 3.02834L68.9453 0.943303ZM38.582 57.698L38.6614 57.7827L41.5783 55.0455L41.4988 54.9609L38.582 57.698ZM38.6165 59.1962L30.4191 66.8886L33.1562 69.8055L41.3537 62.113L38.6165 59.1962ZM8.65808 37.5995L25.3336 68.5321L28.8545 66.634L12.179 35.7014L8.65808 37.5995ZM2.34328 116.512L6.77944 38.0176L2.78581 37.7919L-1.65034 116.287L2.34328 116.512ZM12.179 35.7014C9.78567 31.2618 3.0704 32.7563 2.78581 37.7919L6.77944 38.0176C6.83635 37.0105 8.17942 36.7116 8.65808 37.5995L12.179 35.7014ZM30.4191 66.8886C29.9404 67.3378 29.166 67.2118 28.8545 66.634L25.3336 68.5321C26.8911 71.4213 30.7628 72.0515 33.1562 69.8055L30.4191 66.8886ZM38.6614 57.7827C39.0393 58.1854 39.0192 58.8182 38.6165 59.1962L41.3537 62.113C43.3673 60.2234 43.4679 57.0592 41.5783 55.0455L38.6614 57.7827ZM37.961 51.6703C36.7882 53.5904 37.0424 56.0573 38.582 57.698L41.4988 54.9609C41.1909 54.6327 41.1401 54.1393 41.3746 53.7553L37.961 51.6703ZM78.0293 2.20941C76.8574 -2.00294 71.2244 -2.78805 68.9453 0.943303L72.3589 3.02834C72.8147 2.28207 73.9413 2.43909 74.1757 3.28156L78.0293 2.20941ZM88.342 37.671C88.0323 37.5632 87.7951 37.3105 87.7072 36.9946L83.8536 38.0667C84.293 39.6462 85.4789 40.9099 87.0273 41.4488L88.342 37.671ZM123.129 58.6841C126.998 56.6465 126.572 50.975 122.442 49.538L121.128 53.3158C121.954 53.6032 122.039 54.7375 121.265 55.145L123.129 58.6841ZM64.5611 85.3826C66.1008 87.0232 68.5466 87.4335 70.5373 86.385L68.6732 82.8459C68.2751 83.0556 67.7859 82.9735 67.478 82.6454L64.5611 85.3826ZM63.0682 85.253C63.4709 84.875 64.1038 84.8952 64.4817 85.2979L67.3985 82.5607C65.5089 80.5471 62.3447 80.4465 60.331 82.3361L63.0682 85.253ZM55.0905 94.4621C54.5336 94.1145 54.457 93.3337 54.9357 92.8845L52.1985 89.9677C49.805 92.2137 50.1882 96.1176 52.9726 97.8554L55.0905 94.4621ZM3.3346 117.569C2.76295 117.565 2.31103 117.083 2.34328 116.512L-1.65034 116.287C-1.81163 119.14 0.448002 121.548 3.30627 121.569L3.3346 117.569ZM81.9245 122.126C86.968 122.161 88.8859 115.554 84.6072 112.884L82.4894 116.277C83.3451 116.811 82.9615 118.133 81.9528 118.126L81.9245 122.126Z" fill="#131415" mask="url(#path-1-inside-1_7360_10953)"/>
</svg>
