<svg width="91" height="105" viewBox="0 0 91 105" fill="none" xmlns="http://www.w3.org/2000/svg">
<path fill-rule="evenodd" clip-rule="evenodd" d="M47.8372 4.81549C47.8259 4.38379 47.8234 3.95397 47.8296 3.52619C47.8491 2.1816 46.8447 1 45.5 1C43.5976 1 42.2043 2.68572 42.1679 4.5878C42.1665 4.66364 42.1647 4.73955 42.1628 4.81551L41.7731 19.6209C41.3396 36.0939 28.0941 49.3488 11.6214 49.794L3.91785 50.0022C2.29377 50.0461 1 51.3753 1 53C1 54.6247 2.29377 55.9539 3.91785 55.9978L11.6214 56.206C28.0941 56.6512 41.3396 69.9062 41.7731 86.3792L42.1628 101.185C42.202 102.677 43.3134 103.972 44.8058 103.995C45.0368 103.998 45.2682 104 45.5 104C46.8145 104 47.8104 102.867 47.8297 101.552C47.8315 101.43 47.834 101.307 47.8372 101.184L48.2269 86.3791C48.6604 69.9061 61.9059 56.6512 78.3786 56.206L87.1092 55.97C88.7182 55.9265 90 54.6096 90 53C90 51.3904 88.7182 50.0735 87.1092 50.03L78.3786 49.794C61.9059 49.3488 48.6604 36.0938 48.2269 19.6208L47.8372 4.81549Z" fill="white"/>
<path d="M47.8372 4.81549L48.8369 4.78918L47.8372 4.81549ZM42.1628 4.81551L41.1631 4.7892V4.7892L42.1628 4.81551ZM41.7731 19.6209L42.7728 19.6472L41.7731 19.6209ZM11.6214 49.794L11.6484 50.7937H11.6484L11.6214 49.794ZM11.6214 56.206L11.6484 55.2063H11.6484L11.6214 56.206ZM41.7731 86.3792L42.7728 86.3529L41.7731 86.3792ZM47.8372 101.184L46.8376 101.158L47.8372 101.184ZM48.2269 86.3791L47.2272 86.3528L48.2269 86.3791ZM78.3786 56.206L78.3516 55.2063L78.3786 56.206ZM78.3786 49.794L78.3516 50.7937L78.3786 49.794ZM48.2269 19.6208L47.2272 19.6471L48.2269 19.6208ZM44.8058 103.995L44.8211 102.995L44.8058 103.995ZM87.1092 55.97L87.0821 54.9704L87.1092 55.97ZM3.91785 50.0022L3.94487 51.0019L3.91785 50.0022ZM87.1092 50.03L87.0821 51.0296L87.1092 50.03ZM3.91785 55.9978L3.89084 56.9974L3.91785 55.9978ZM47.8297 101.552L46.8298 101.538L47.8297 101.552ZM42.1679 4.5878L43.1677 4.60692L42.1679 4.5878ZM47.8296 3.52619L46.8297 3.51167L47.8296 3.52619ZM46.8297 3.51167C46.8233 3.95306 46.8259 4.39649 46.8376 4.84179L48.8369 4.78918C48.8259 4.37109 48.8235 3.95488 48.8295 3.54071L46.8297 3.51167ZM43.1624 4.84181C43.1645 4.76346 43.1662 4.68516 43.1677 4.60692L41.1681 4.56868C41.1667 4.64212 41.165 4.71563 41.1631 4.7892L43.1624 4.84181ZM42.7728 19.6472L43.1624 4.84181L41.1631 4.7892L40.7735 19.5946L42.7728 19.6472ZM11.6484 50.7937C28.6525 50.3341 42.3253 36.6516 42.7728 19.6472L40.7735 19.5946C40.354 35.5362 27.5357 48.3635 11.5944 48.7944L11.6484 50.7937ZM3.94487 51.0019L11.6484 50.7937L11.5944 48.7944L3.89084 49.0026L3.94487 51.0019ZM11.6484 55.2063L3.94487 54.9981L3.89084 56.9974L11.5944 57.2056L11.6484 55.2063ZM42.7728 86.3529C42.3253 69.3485 28.6525 55.6659 11.6484 55.2063L11.5944 57.2056C27.5357 57.6365 40.354 70.4639 40.7735 86.4055L42.7728 86.3529ZM43.1624 101.158L42.7728 86.3529L40.7735 86.4055L41.1631 101.211L43.1624 101.158ZM45.5 103C45.2733 103 45.047 102.998 44.8211 102.995L44.7905 104.995C45.0266 104.998 45.2631 105 45.5 105V103ZM48.8296 101.567C48.8313 101.448 48.8338 101.33 48.8369 101.211L46.8376 101.158C46.8343 101.285 46.8317 101.411 46.8298 101.538L48.8296 101.567ZM48.8369 101.211L49.2265 86.4054L47.2272 86.3528L46.8376 101.158L48.8369 101.211ZM49.2265 86.4054C49.646 70.4638 62.4643 57.6365 78.4056 57.2056L78.3516 55.2063C61.3475 55.6659 47.6747 69.3484 47.2272 86.3528L49.2265 86.4054ZM78.4056 57.2056L87.1362 56.9697L87.0821 54.9704L78.3516 55.2063L78.4056 57.2056ZM78.3516 50.7937L87.0821 51.0296L87.1362 49.0303L78.4056 48.7944L78.3516 50.7937ZM47.2272 19.6471C47.6747 36.6515 61.3475 50.3341 78.3516 50.7937L78.4056 48.7944C62.4643 48.3635 49.646 35.5362 49.2265 19.5945L47.2272 19.6471ZM46.8376 4.84179L47.2272 19.6471L49.2265 19.5945L48.8369 4.78918L46.8376 4.84179ZM41.1631 101.211C41.214 103.144 42.6719 104.962 44.7905 104.995L44.8211 102.995C43.9549 102.982 43.1901 102.209 43.1624 101.158L41.1631 101.211ZM87.1362 56.9697C89.2868 56.9115 91 55.1514 91 53H89C89 54.0679 88.1496 54.9415 87.0821 54.9704L87.1362 56.9697ZM3.89084 49.0026C1.72519 49.0611 0 50.8336 0 53H2C2 51.9171 2.86235 51.0311 3.94487 51.0019L3.89084 49.0026ZM91 53C91 50.8486 89.2868 49.0885 87.1362 49.0303L87.0821 51.0296C88.1496 51.0585 89 51.9321 89 53H91ZM0 53C0 55.1664 1.72519 56.9389 3.89084 56.9974L3.94487 54.9981C2.86235 54.9689 2 54.0829 2 53H0ZM45.5 105C47.4422 105 48.8035 103.343 48.8296 101.567L46.8298 101.538C46.8173 102.39 46.1869 103 45.5 103V105ZM45.5 0C42.9366 0 41.2125 2.24586 41.1681 4.56868L43.1677 4.60692C43.1961 3.12558 44.2585 2 45.5 2V0ZM48.8295 3.54071C48.8558 1.72707 47.4876 0 45.5 0V2C46.2018 2 46.8424 2.63612 46.8297 3.51167L48.8295 3.54071Z" fill="#131415"/>
</svg>
