<svg width="454" height="466" viewBox="0 0 454 466" fill="none" xmlns="http://www.w3.org/2000/svg">
<path d="M186.94 1.13725C248.423 -1.59114 257.429 36.7605 247.03 80.4194C238.816 114.905 266.859 154.542 301.523 147.116L431.21 119.337C456.871 113.84 480.784 134.127 479.543 160.341L473.39 290.289C472.616 306.616 461.987 320.83 446.544 326.187L54.8806 462.058C13.8407 476.295 -17.2795 424.105 14.7561 394.768L158.947 262.722C178.679 244.652 175.45 212.678 152.503 198.918L76.146 153.129C64.093 145.902 56.3893 132.822 58.6017 118.943C66.1495 71.5936 98.1961 5.07535 186.94 1.13725Z" fill="#C4C4FA" stroke="#131415" stroke-width="2"/>
</svg>
