<svg width="513" height="727" viewBox="0 0 513 727" fill="none" xmlns="http://www.w3.org/2000/svg">
<mask id="path-1-inside-1_7360_10822" fill="white">
<path fill-rule="evenodd" clip-rule="evenodd" d="M-212.763 278.378C-215.9 276.87 -214.482 271.093 -211.003 271.209C-146.874 273.347 -90.0502 254.537 -58.2792 211.276C-26.5084 168.015 -25.5647 108.166 -46.7955 47.6167C-47.9472 44.3321 -42.8597 41.2502 -40.4819 43.792C3.35163 90.649 56.8327 117.528 109.888 109.403C162.944 101.278 205.931 59.6256 233.733 1.79734C235.242 -1.33966 241.018 0.078593 240.902 3.55738C238.764 67.6862 257.574 124.51 300.836 156.281C344.097 188.052 403.945 188.996 464.495 167.765C467.78 166.613 470.862 171.701 468.32 174.079C421.462 217.912 394.583 271.394 402.707 324.45C410.832 377.505 452.485 420.492 510.312 448.295C513.449 449.803 512.031 455.58 508.552 455.464C444.424 453.325 387.6 472.136 355.829 515.397C324.058 558.658 323.114 618.506 344.345 679.056C345.497 682.34 340.409 685.422 338.031 682.88C294.198 636.023 240.717 609.144 187.661 617.269C134.606 625.394 91.6194 667.046 63.8169 724.873C62.3087 728.01 56.532 726.592 56.648 723.113C58.786 658.985 39.9755 602.162 -3.28546 570.391C-46.5467 538.62 -106.396 537.677 -166.945 558.908C-170.23 560.059 -173.312 554.972 -170.77 552.594C-123.912 508.76 -97.033 455.279 -105.158 402.223C-113.283 349.167 -154.935 306.18 -212.763 278.378Z"/>
</mask>
<path fill-rule="evenodd" clip-rule="evenodd" d="M-212.763 278.378C-215.9 276.87 -214.482 271.093 -211.003 271.209C-146.874 273.347 -90.0502 254.537 -58.2792 211.276C-26.5084 168.015 -25.5647 108.166 -46.7955 47.6167C-47.9472 44.3321 -42.8597 41.2502 -40.4819 43.792C3.35163 90.649 56.8327 117.528 109.888 109.403C162.944 101.278 205.931 59.6256 233.733 1.79734C235.242 -1.33966 241.018 0.078593 240.902 3.55738C238.764 67.6862 257.574 124.51 300.836 156.281C344.097 188.052 403.945 188.996 464.495 167.765C467.78 166.613 470.862 171.701 468.32 174.079C421.462 217.912 394.583 271.394 402.707 324.45C410.832 377.505 452.485 420.492 510.312 448.295C513.449 449.803 512.031 455.58 508.552 455.464C444.424 453.325 387.6 472.136 355.829 515.397C324.058 558.658 323.114 618.506 344.345 679.056C345.497 682.34 340.409 685.422 338.031 682.88C294.198 636.023 240.717 609.144 187.661 617.269C134.606 625.394 91.6194 667.046 63.8169 724.873C62.3087 728.01 56.532 726.592 56.648 723.113C58.786 658.985 39.9755 602.162 -3.28546 570.391C-46.5467 538.62 -106.396 537.677 -166.945 558.908C-170.23 560.059 -173.312 554.972 -170.77 552.594C-123.912 508.76 -97.033 455.279 -105.158 402.223C-113.283 349.167 -154.935 306.18 -212.763 278.378Z" fill="#D1F26A"/>
<path d="M-58.2792 211.276L-56.6672 212.459L-58.2792 211.276ZM300.836 156.281L302.02 154.669L300.836 156.281ZM-3.28546 570.391L-2.10162 568.779L-3.28546 570.391ZM-166.945 558.908L-166.284 560.795L-166.945 558.908ZM-170.77 552.594L-169.404 554.054L-170.77 552.594ZM344.345 679.056L346.232 678.394L344.345 679.056ZM338.031 682.88L336.571 684.247L338.031 682.88ZM510.312 448.295L509.446 450.097L510.312 448.295ZM508.552 455.464L508.619 453.465L508.552 455.464ZM233.733 1.79734L231.931 0.930743L233.733 1.79734ZM240.902 3.55738L238.904 3.49073L240.902 3.55738ZM-46.7955 47.6167L-44.9082 46.9549L-46.7955 47.6167ZM464.495 167.765L463.833 165.878L464.495 167.765ZM468.32 174.079L466.953 172.618L468.32 174.079ZM63.8169 724.873L65.6194 725.74L63.8169 724.873ZM-212.763 278.378L-211.896 276.576L-212.763 278.378ZM-59.8912 210.092C-91.121 252.616 -147.164 271.337 -210.936 269.21L-211.069 273.208C-146.584 275.358 -88.9795 256.458 -56.6672 212.459L-59.8912 210.092ZM-48.6829 48.2785C-27.5702 108.491 -28.6616 167.568 -59.8912 210.092L-56.6672 212.459C-24.3552 168.461 -23.5592 107.841 -44.9082 46.9549L-48.6829 48.2785ZM109.585 107.426C57.4337 115.413 4.56827 89.022 -39.0213 42.4257L-41.9424 45.1583C2.13498 92.276 56.2317 119.643 110.191 111.38L109.585 107.426ZM231.931 0.930743C204.283 58.4372 161.738 99.4398 109.585 107.426L110.191 111.38C164.151 103.117 207.579 60.814 235.536 2.66394L231.931 0.930743ZM302.02 154.669C259.495 123.44 240.775 67.396 242.901 3.62403L238.904 3.49073C236.753 67.9763 255.654 125.581 299.652 157.893L302.02 154.669ZM463.833 165.878C403.621 186.99 344.544 185.899 302.02 154.669L299.652 157.893C343.65 190.205 404.27 191.001 465.157 169.652L463.833 165.878ZM404.684 324.147C396.698 271.995 423.089 219.129 469.686 175.539L466.953 172.618C419.835 216.696 392.467 270.793 400.73 324.752L404.684 324.147ZM511.179 446.492C453.673 418.844 412.671 376.299 404.684 324.147L400.73 324.752C408.994 378.712 451.296 422.14 509.446 450.097L511.179 446.492ZM357.441 516.581C388.671 474.057 444.714 455.336 508.486 457.462L508.619 453.465C444.133 451.314 386.529 470.215 354.217 514.213L357.441 516.581ZM346.232 678.394C325.12 618.181 326.211 559.105 357.441 516.581L354.217 514.213C321.905 558.211 321.109 618.831 342.458 679.717L346.232 678.394ZM187.964 619.246C240.116 611.26 292.981 637.65 336.571 684.247L339.492 681.514C295.414 634.396 241.318 607.029 187.359 615.292L187.964 619.246ZM65.6194 725.74C93.2672 668.234 135.812 627.232 187.964 619.246L187.359 615.292C133.399 623.555 89.9716 665.857 62.0144 724.007L65.6194 725.74ZM-4.46929 572.003C38.0548 603.233 56.7752 659.275 54.6491 723.047L58.6469 723.18C60.7968 658.695 41.8963 601.091 -2.10162 568.779L-4.46929 572.003ZM-166.284 560.795C-106.071 539.682 -46.9936 540.773 -4.46929 572.003L-2.10162 568.779C-46.0998 536.467 -106.721 535.671 -167.607 557.02L-166.284 560.795ZM-107.135 402.526C-99.1483 454.678 -125.54 507.544 -172.136 551.133L-169.404 554.054C-122.285 509.977 -94.9176 455.88 -103.181 401.92L-107.135 402.526ZM-213.629 280.181C-156.123 307.828 -115.121 350.374 -107.135 402.526L-103.181 401.92C-111.444 347.961 -153.747 304.533 -211.896 276.576L-213.629 280.181ZM-167.607 557.02C-168.01 557.162 -168.739 557.017 -169.332 556.038C-169.925 555.06 -169.716 554.346 -169.404 554.054L-172.136 551.133C-174.366 553.219 -173.887 556.239 -172.753 558.111C-171.619 559.983 -169.165 561.805 -166.284 560.795L-167.607 557.02ZM342.458 679.717C342.599 680.121 342.454 680.85 341.475 681.442C340.497 682.035 339.784 681.826 339.492 681.514L336.571 684.247C338.657 686.476 341.676 685.998 343.548 684.864C345.42 683.73 347.243 681.275 346.232 678.394L342.458 679.717ZM509.446 450.097C509.831 450.282 510.243 450.9 509.971 452.011C509.698 453.122 509.046 453.479 508.619 453.465L508.486 457.462C511.537 457.564 513.334 455.091 513.855 452.965C514.377 450.839 513.931 447.815 511.179 446.492L509.446 450.097ZM235.536 2.66394C235.721 2.27882 236.339 1.86602 237.45 2.13876C238.561 2.41151 238.918 3.06365 238.904 3.49073L242.901 3.62403C243.003 0.572324 240.529 -1.22405 238.404 -1.74588C236.278 -2.26771 233.254 -1.82114 231.931 0.930743L235.536 2.66394ZM-44.9082 46.9549C-45.0496 46.5516 -44.9044 45.8227 -43.926 45.23C-42.9477 44.6374 -42.2344 44.8462 -41.9424 45.1583L-39.0213 42.4257C-41.1072 40.1959 -44.1266 40.6748 -45.9985 41.8088C-47.8705 42.9428 -49.6932 45.3971 -48.6829 48.2785L-44.9082 46.9549ZM465.157 169.652C465.56 169.511 466.289 169.656 466.882 170.635C467.474 171.613 467.266 172.326 466.953 172.618L469.686 175.539C471.916 173.453 471.437 170.434 470.303 168.562C469.169 166.69 466.715 164.867 463.833 165.878L465.157 169.652ZM62.0144 724.007C61.8293 724.392 61.2111 724.804 60.1002 724.532C58.9894 724.259 58.6327 723.607 58.6469 723.18L54.6491 723.047C54.5474 726.098 57.021 727.895 59.1465 728.416C61.2721 728.938 64.2964 728.492 65.6194 725.74L62.0144 724.007ZM-210.936 269.21C-213.988 269.108 -215.784 271.582 -216.306 273.708C-216.828 275.833 -216.381 278.857 -213.629 280.181L-211.896 276.576C-212.281 276.39 -212.694 275.772 -212.421 274.661C-212.149 273.55 -211.496 273.194 -211.069 273.208L-210.936 269.21Z" fill="#131415" mask="url(#path-1-inside-1_7360_10822)"/>
</svg>
