<svg width="103" height="113" viewBox="0 0 103 113" fill="none" xmlns="http://www.w3.org/2000/svg">
<mask id="path-1-inside-1_7385_1650" fill="white">
<path fill-rule="evenodd" clip-rule="evenodd" d="M103 39C103 48.8592 96.5146 57.2037 87.5771 60C96.5146 62.7963 103 71.1408 103 81C103 93.1503 93.1503 103 81 103C73.4742 103 66.831 99.2212 62.8643 93.4574C61.6424 104.451 52.3196 113 41 113C28.8497 113 19 103.15 19 91C19 85.0949 21.3265 79.7332 25.113 75.7815C24.096 75.9255 23.0567 76 22 76C9.84974 76 0 66.1503 0 54C0 41.8497 9.84974 32 22 32C22.8348 32 23.6588 32.0465 24.4695 32.1371C22.8917 29.1034 22 25.6558 22 22C22 9.84974 31.8497 0 44 0C56.1503 0 66 9.84974 66 22C66 22.3096 65.9936 22.6177 65.9809 22.9242C69.9127 19.2494 75.1937 17 81 17C93.1503 17 103 26.8497 103 39Z"/>
</mask>
<path fill-rule="evenodd" clip-rule="evenodd" d="M103 39C103 48.8592 96.5146 57.2037 87.5771 60C96.5146 62.7963 103 71.1408 103 81C103 93.1503 93.1503 103 81 103C73.4742 103 66.831 99.2212 62.8643 93.4574C61.6424 104.451 52.3196 113 41 113C28.8497 113 19 103.15 19 91C19 85.0949 21.3265 79.7332 25.113 75.7815C24.096 75.9255 23.0567 76 22 76C9.84974 76 0 66.1503 0 54C0 41.8497 9.84974 32 22 32C22.8348 32 23.6588 32.0465 24.4695 32.1371C22.8917 29.1034 22 25.6558 22 22C22 9.84974 31.8497 0 44 0C56.1503 0 66 9.84974 66 22C66 22.3096 65.9936 22.6177 65.9809 22.9242C69.9127 19.2494 75.1937 17 81 17C93.1503 17 103 26.8497 103 39Z" fill="#C4C4FA"/>
<path d="M87.5771 60L86.9799 58.0912L80.8793 60L86.9799 61.9088L87.5771 60ZM62.8643 93.4574L64.5118 92.3235L61.4693 87.9027L60.8765 93.2365L62.8643 93.4574ZM25.113 75.7815L26.5571 77.1652L30.5572 72.9904L24.8325 73.8012L25.113 75.7815ZM24.4695 32.1371L24.2475 34.1247L27.9741 34.541L26.2439 31.2142L24.4695 32.1371ZM65.9809 22.9242L63.9826 22.8416L63.7812 27.7178L67.3466 24.3853L65.9809 22.9242ZM88.1743 61.9088C97.9225 58.8588 105 49.7585 105 39H101C101 47.9599 95.1067 55.5486 86.9799 58.0912L88.1743 61.9088ZM105 81C105 70.2415 97.9225 61.1412 88.1743 58.0912L86.9799 61.9088C95.1067 64.4514 101 72.0401 101 81H105ZM81 105C94.2548 105 105 94.2548 105 81H101C101 92.0457 92.0457 101 81 101V105ZM61.2168 94.5912C65.5407 100.874 72.7883 105 81 105V101C74.1601 101 68.1213 97.5683 64.5118 92.3235L61.2168 94.5912ZM41 115C53.35 115 63.5189 105.673 64.8521 93.6783L60.8765 93.2365C59.766 103.229 51.2892 111 41 111V115ZM17 91C17 104.255 27.7452 115 41 115V111C29.9543 111 21 102.046 21 91H17ZM23.6689 74.3978C19.54 78.7068 17 84.5589 17 91H21C21 85.6309 23.113 80.7595 26.5571 77.1652L23.6689 74.3978ZM22 78C23.1508 78 24.2839 77.9188 25.3935 77.7617L24.8325 73.8012C23.9082 73.9321 22.9626 74 22 74V78ZM-2 54C-2 67.2548 8.74517 78 22 78V74C10.9543 74 2 65.0457 2 54H-2ZM22 30C8.74517 30 -2 40.7452 -2 54H2C2 42.9543 10.9543 34 22 34V30ZM24.6915 30.1494C23.8073 30.0506 22.9092 30 22 30V34C22.7605 34 23.5104 34.0424 24.2475 34.1247L24.6915 30.1494ZM20 22C20 25.9846 20.9726 29.748 22.6951 33.0599L26.2439 31.2142C24.8108 28.4588 24 25.327 24 22H20ZM44 -2C30.7452 -2 20 8.74517 20 22H24C24 10.9543 32.9543 2 44 2V-2ZM68 22C68 8.74517 57.2548 -2 44 -2V2C55.0457 2 64 10.9543 64 22H68ZM67.9792 23.0068C67.993 22.6728 68 22.3371 68 22H64C64 22.2821 63.9942 22.5626 63.9826 22.8416L67.9792 23.0068ZM81 15C74.6668 15 68.9028 17.4557 64.6153 21.4631L67.3466 24.3853C70.9226 21.043 75.7205 19 81 19V15ZM105 39C105 25.7452 94.2548 15 81 15V19C92.0457 19 101 27.9543 101 39H105Z" fill="#131415" mask="url(#path-1-inside-1_7385_1650)"/>
</svg>
