<svg width="63" height="85" viewBox="0 0 63 85" fill="none" xmlns="http://www.w3.org/2000/svg">
<path fill-rule="evenodd" clip-rule="evenodd" d="M31.5 1C32.4368 1 33.1751 1.76959 33.1929 2.70624L33.4354 15.4606C33.6954 29.1354 44.6611 40.1893 58.3335 40.5588C58.8133 40.5718 59.2903 40.5715 59.7642 40.5583C60.9581 40.5249 62 41.4462 62 42.6405C62 43.8348 60.9581 44.7561 59.7642 44.7227C59.2903 44.7095 58.8133 44.7092 58.3335 44.7221C44.6611 45.0917 33.6954 56.1455 33.4354 69.8204L33.1983 82.2881C33.1805 83.2278 32.4399 84 31.5 84C30.1657 84 29.1296 82.892 29.1042 81.5579L28.8811 69.8204C28.621 56.1456 17.6553 45.0917 3.98295 44.7221C3.71088 44.7148 3.4397 44.7117 3.16948 44.7128C2.00199 44.7177 1 43.808 1 42.6405C1 41.473 2.00199 40.5634 3.16948 40.5682C3.4397 40.5693 3.71088 40.5662 3.98296 40.5589C17.6553 40.1894 28.621 29.1355 28.8811 15.4606L29.1097 3.43635C29.135 2.10535 30.1688 1 31.5 1Z" fill="white"/>
<path d="M33.4354 15.4606L34.4352 15.4416L33.4354 15.4606ZM58.3335 40.5588L58.3065 41.5585L58.3335 40.5588ZM58.3335 44.7221L58.3065 43.7225L58.3335 44.7221ZM33.4354 69.8204L34.4352 69.8394L33.4354 69.8204ZM28.8811 69.8204L29.8809 69.8014L28.8811 69.8204ZM3.98295 44.7221L3.95593 45.7218H3.95594L3.98295 44.7221ZM3.98296 40.5589L3.95594 39.5593H3.95594L3.98296 40.5589ZM28.8811 15.4606L29.8809 15.4796L28.8811 15.4606ZM3.16948 40.5682L3.16533 41.5682L3.16948 40.5682ZM33.1983 82.2881L32.1985 82.2691L33.1983 82.2881ZM59.7642 40.5583L59.7363 39.5587L59.7642 40.5583ZM29.1042 81.5579L28.1044 81.5769L29.1042 81.5579ZM59.7642 44.7227L59.7363 45.7223L59.7642 44.7227ZM34.4352 15.4416L34.1927 2.68723L32.1931 2.72526L32.4356 15.4796L34.4352 15.4416ZM58.3605 39.5592C45.2224 39.2041 34.6851 28.5821 34.4352 15.4416L32.4356 15.4796C32.7058 29.6887 44.0999 41.1745 58.3065 41.5585L58.3605 39.5592ZM59.7363 39.5587C59.2807 39.5714 58.822 39.5717 58.3605 39.5592L58.3065 41.5585C58.8046 41.5719 59.3 41.5716 59.7922 41.5579L59.7363 39.5587ZM58.3605 45.7218C58.822 45.7093 59.2807 45.7096 59.7363 45.7223L59.7922 43.7231C59.3 43.7094 58.8046 43.709 58.3065 43.7225L58.3605 45.7218ZM34.4352 69.8394C34.6851 56.6988 45.2224 46.0769 58.3605 45.7218L58.3065 43.7225C44.0999 44.1065 32.7058 55.5922 32.4356 69.8014L34.4352 69.8394ZM34.1981 82.3071L34.4352 69.8394L32.4356 69.8014L32.1985 82.2691L34.1981 82.3071ZM27.8812 69.8394L28.1044 81.5769L30.1041 81.5389L29.8809 69.8014L27.8812 69.8394ZM3.95594 45.7218C17.0941 46.0769 27.6314 56.6989 27.8812 69.8394L29.8809 69.8014C29.6107 55.5922 18.2165 44.1065 4.00997 43.7225L3.95594 45.7218ZM3.17363 45.7128C3.43346 45.7117 3.69425 45.7147 3.95593 45.7218L4.00997 43.7225C3.72751 43.7149 3.44594 43.7117 3.16533 43.7128L3.17363 45.7128ZM3.95594 39.5593C3.69425 39.5663 3.43346 39.5693 3.17363 39.5682L3.16533 41.5682C3.44594 41.5694 3.72751 41.5662 4.00998 41.5585L3.95594 39.5593ZM27.8812 15.4416C27.6314 28.5822 17.0941 39.2042 3.95594 39.5593L4.00997 41.5585C18.2165 41.1746 29.6107 29.6888 29.8809 15.4796L27.8812 15.4416ZM28.1099 3.41734L27.8812 15.4416L29.8809 15.4796L30.1095 3.45536L28.1099 3.41734ZM30.1095 3.45536C30.1254 2.61919 30.7623 2 31.5 2V0C29.5753 0 28.1446 1.59151 28.1099 3.41734L30.1095 3.45536ZM2 42.6405C2 42.0804 2.49672 41.5654 3.16533 41.5682L3.17363 39.5682C1.50726 39.5613 0 40.8656 0 42.6405H2ZM3.16533 43.7128C2.49672 43.7156 2 43.2006 2 42.6405H0C0 44.4154 1.50727 45.7197 3.17363 45.7128L3.16533 43.7128ZM32.1985 82.2691C32.1903 82.6993 31.8605 83 31.5 83V85C33.0193 85 34.1706 83.7564 34.1981 82.3071L32.1985 82.2691ZM59.7922 41.5579C60.4805 41.5386 61 42.0653 61 42.6405H63C63 40.827 61.4356 39.5112 59.7363 39.5587L59.7922 41.5579ZM31.5 83C30.7593 83 30.12 82.3783 30.1041 81.5389L28.1044 81.5769C28.1392 83.4057 29.572 85 31.5 85V83ZM61 42.6405C61 43.2157 60.4805 43.7423 59.7922 43.7231L59.7363 45.7223C61.4356 45.7698 63 44.4539 63 42.6405H61ZM31.5 2C31.8575 2 32.1849 2.29827 32.1931 2.72526L34.1927 2.68723C34.1652 1.2409 33.0162 0 31.5 0V2Z" fill="#131415"/>
</svg>
