<svg width="156" height="193" viewBox="0 0 156 193" fill="none" xmlns="http://www.w3.org/2000/svg">
<mask id="path-1-inside-1_7385_1640" fill="white">
<path fill-rule="evenodd" clip-rule="evenodd" d="M-80.0689 115.03C-94.39 123.299 -97.9168 144.001 -87.9462 161.271C-77.9756 178.54 -58.2834 185.837 -43.9623 177.569C-38.6157 174.482 -34.7737 169.662 -32.5768 163.935C-26.5193 164.895 -20.4252 163.977 -15.0795 160.891C-9.7334 157.805 -5.89154 152.985 -3.69454 147.259C2.36379 148.22 8.45883 147.302 13.8053 144.215C19.1514 141.129 22.9932 136.309 25.1902 130.583C31.2486 131.544 37.3436 130.626 42.69 127.54C48.0367 124.453 51.8788 119.633 54.0757 113.905C60.1338 114.866 66.2286 113.948 71.5748 110.862C76.9208 107.775 80.7626 102.956 82.9596 97.2295C89.0174 98.19 95.1117 97.2725 100.458 94.186C105.804 91.0995 109.646 86.2801 111.843 80.5534C117.901 81.5144 123.996 80.597 129.342 77.5103C143.663 69.242 147.19 48.5395 137.22 31.27C127.249 14.0005 107.557 6.70353 93.2358 14.9718C87.8897 18.0584 84.0478 22.8777 81.8508 28.6044C75.7925 27.6434 69.6975 28.5608 64.351 31.6476C59.005 34.7341 55.1632 39.5533 52.9662 45.2799C46.9084 44.3194 40.8141 45.2369 35.4682 48.3234C30.1215 51.4103 26.2794 56.2303 24.0825 61.9578C18.0244 60.997 11.9297 61.9145 6.58343 65.0011C1.23733 68.0877 -2.60453 72.907 -4.80153 78.6337C-10.8599 77.6727 -16.9549 78.5901 -22.3013 81.6769C-27.6474 84.7635 -31.4893 89.5828 -33.6863 95.3095C-39.7446 94.3485 -45.8397 95.2659 -51.1861 98.3527C-56.5327 101.44 -60.3747 106.259 -62.5716 111.987C-68.6291 111.026 -74.7232 111.944 -80.0689 115.03Z"/>
</mask>
<path fill-rule="evenodd" clip-rule="evenodd" d="M-80.0689 115.03C-94.39 123.299 -97.9168 144.001 -87.9462 161.271C-77.9756 178.54 -58.2834 185.837 -43.9623 177.569C-38.6157 174.482 -34.7737 169.662 -32.5768 163.935C-26.5193 164.895 -20.4252 163.977 -15.0795 160.891C-9.7334 157.805 -5.89154 152.985 -3.69454 147.259C2.36379 148.22 8.45883 147.302 13.8053 144.215C19.1514 141.129 22.9932 136.309 25.1902 130.583C31.2486 131.544 37.3436 130.626 42.69 127.54C48.0367 124.453 51.8788 119.633 54.0757 113.905C60.1338 114.866 66.2286 113.948 71.5748 110.862C76.9208 107.775 80.7626 102.956 82.9596 97.2295C89.0174 98.19 95.1117 97.2725 100.458 94.186C105.804 91.0995 109.646 86.2801 111.843 80.5534C117.901 81.5144 123.996 80.597 129.342 77.5103C143.663 69.242 147.19 48.5395 137.22 31.27C127.249 14.0005 107.557 6.70353 93.2358 14.9718C87.8897 18.0584 84.0478 22.8777 81.8508 28.6044C75.7925 27.6434 69.6975 28.5608 64.351 31.6476C59.005 34.7341 55.1632 39.5533 52.9662 45.2799C46.9084 44.3194 40.8141 45.2369 35.4682 48.3234C30.1215 51.4103 26.2794 56.2303 24.0825 61.9578C18.0244 60.997 11.9297 61.9145 6.58343 65.0011C1.23733 68.0877 -2.60453 72.907 -4.80153 78.6337C-10.8599 77.6727 -16.9549 78.5901 -22.3013 81.6769C-27.6474 84.7635 -31.4893 89.5828 -33.6863 95.3095C-39.7446 94.3485 -45.8397 95.2659 -51.1861 98.3527C-56.5327 101.44 -60.3747 106.259 -62.5716 111.987C-68.6291 111.026 -74.7232 111.944 -80.0689 115.03Z" fill="#FFD405"/>
<path d="M-32.5768 163.935L-32.2636 161.959L-33.8638 161.706L-34.4441 163.218L-32.5768 163.935ZM-3.69454 147.259L-3.38121 145.283L-4.98148 145.029L-5.56184 146.542L-3.69454 147.259ZM25.1902 130.583L25.5036 128.607L23.9033 128.354L23.3229 129.866L25.1902 130.583ZM54.0757 113.905L54.389 111.93L52.7886 111.676L52.2083 113.189L54.0757 113.905ZM82.9596 97.2295L83.2729 95.2542L81.6727 95.0005L81.0924 96.5131L82.9596 97.2295ZM111.843 80.5534L112.156 78.5781L110.556 78.3243L109.975 79.8371L111.843 80.5534ZM81.8508 28.6044L81.5375 30.5797L83.1378 30.8335L83.7181 29.3208L81.8508 28.6044ZM52.9662 45.2799L52.653 47.2552L54.2531 47.5089L54.8335 45.9963L52.9662 45.2799ZM24.0825 61.9578L23.7693 63.9331L25.3696 64.1869L25.9499 62.6741L24.0825 61.9578ZM-4.80153 78.6337L-5.11485 80.609L-3.51459 80.8628L-2.93423 79.3501L-4.80153 78.6337ZM-33.6863 95.3095L-33.9996 97.2848L-32.3993 97.5386L-31.819 96.0259L-33.6863 95.3095ZM-62.5716 111.987L-62.8848 113.962L-61.2846 114.216L-60.7043 112.703L-62.5716 111.987ZM-86.2141 160.271C-95.8158 143.64 -92.144 124.311 -79.0689 116.762L-81.0689 113.298C-96.6359 122.286 -100.018 144.362 -89.6782 162.271L-86.2141 160.271ZM-44.9623 175.837C-58.0374 183.386 -76.6125 176.901 -86.2141 160.271L-89.6782 162.271C-79.3388 180.179 -58.5293 188.289 -42.9623 179.301L-44.9623 175.837ZM-34.4441 163.218C-36.4943 168.563 -40.053 173.002 -44.9623 175.837L-42.9623 179.301C-37.1785 175.962 -33.053 170.761 -30.7094 164.651L-34.4441 163.218ZM-32.8899 165.91C-26.4279 166.934 -19.8624 165.962 -14.0795 162.623L-16.0795 159.159C-20.988 161.993 -26.6106 162.856 -32.2636 161.959L-32.8899 165.91ZM-14.0795 162.623C-8.2962 159.284 -4.17096 154.084 -1.82724 147.975L-5.56184 146.542C-7.61213 151.886 -11.1706 156.325 -16.0795 159.159L-14.0795 162.623ZM-4.00786 149.234C2.45502 150.259 9.02159 149.287 14.8053 145.947L12.8053 142.483C7.89605 145.318 2.27255 146.18 -3.38121 145.283L-4.00786 149.234ZM14.8053 145.947C20.5886 142.608 24.7138 137.408 27.0575 131.299L23.3229 129.866C21.2726 135.211 17.7141 139.649 12.8053 142.483L14.8053 145.947ZM24.8769 132.558C31.3398 133.583 37.9063 132.611 43.69 129.272L41.69 125.808C36.7808 128.642 31.1573 129.504 25.5036 128.607L24.8769 132.558ZM43.69 129.272C49.474 125.932 53.5995 120.731 55.943 114.621L52.2083 113.189C50.1582 118.534 46.5995 122.973 41.69 125.808L43.69 129.272ZM53.7624 115.88C60.2251 116.905 66.7913 115.933 72.5748 112.594L70.5748 109.13C65.6658 111.964 60.0425 112.826 54.389 111.93L53.7624 115.88ZM72.5748 112.594C78.358 109.255 82.4832 104.055 84.8269 97.9459L81.0924 96.5131C79.042 101.857 75.4836 106.296 70.5748 109.13L72.5748 112.594ZM82.6464 99.2048C89.1087 100.229 95.6745 99.257 101.458 95.9181L99.4576 92.454C94.5489 95.288 88.926 96.1506 83.2729 95.2542L82.6464 99.2048ZM101.458 95.9181C107.241 92.5791 111.366 87.3789 113.71 81.2698L109.975 79.8371C107.925 85.1813 104.367 89.6198 99.4576 92.454L101.458 95.9181ZM111.529 82.5287C117.992 83.5539 124.559 82.5815 130.342 79.2423L128.342 75.7782C123.433 78.6125 117.81 79.4749 112.156 78.5781L111.529 82.5287ZM130.342 79.2423C145.909 70.2547 149.291 48.1785 138.952 30.27L135.488 32.27C145.089 48.9006 141.417 68.2293 128.342 75.7782L130.342 79.2423ZM138.952 30.27C128.612 12.3615 107.803 4.25213 92.2358 13.2398L94.2358 16.7039C107.311 9.15494 125.886 15.6394 135.488 32.27L138.952 30.27ZM92.2358 13.2398C86.4525 16.5787 82.3272 21.7789 79.9835 27.888L83.7181 29.3208C85.7684 23.9765 89.3269 19.538 94.2358 16.7039L92.2358 13.2398ZM82.1641 26.6291C75.7013 25.604 69.1347 26.5763 63.351 29.9155L65.351 33.3796C70.2602 30.5453 75.8837 29.6829 81.5375 30.5797L82.1641 26.6291ZM63.351 29.9155C57.5678 33.2545 53.4426 38.4545 51.0989 44.5635L54.8335 45.9963C56.8838 40.6521 60.4422 36.2137 65.351 33.3796L63.351 29.9155ZM53.2794 43.3046C46.8171 42.2799 40.2513 43.2525 34.4682 46.5913L36.4682 50.0554C41.3769 47.2214 46.9998 46.3589 52.653 47.2552L53.2794 43.3046ZM34.4682 46.5913C28.6843 49.9307 24.5588 55.1316 22.2152 61.2416L25.9499 62.6741C28.0001 57.329 31.5588 52.8899 36.4682 50.0554L34.4682 46.5913ZM24.3958 59.9825C17.9332 58.9575 11.3669 59.93 5.58343 63.2691L7.58343 66.7332C12.4925 63.8989 18.1157 63.0365 23.7693 63.9331L24.3958 59.9825ZM5.58343 63.2691C-0.199867 66.608 -4.32512 71.8082 -6.66882 77.9173L-2.93423 79.3501C-0.883949 74.0058 2.67454 69.5673 7.58343 66.7332L5.58343 63.2691ZM-4.4882 76.6584C-10.9511 75.6333 -17.5177 76.6056 -23.3013 79.9448L-21.3013 83.4089C-16.3921 80.5746 -10.7686 79.7122 -5.11485 80.609L-4.4882 76.6584ZM-23.3013 79.9448C-29.0846 83.2838 -33.2099 88.484 -35.5536 94.5931L-31.819 96.0259C-29.7687 90.6816 -26.2102 86.2431 -21.3013 83.4089L-23.3013 79.9448ZM-33.373 93.3342C-39.8359 92.309 -46.4024 93.2814 -52.1861 96.6206L-50.1861 100.085C-45.2769 97.2504 -39.6534 96.388 -33.9996 97.2848L-33.373 93.3342ZM-52.1861 96.6206C-57.9699 99.9599 -62.0954 105.161 -64.439 111.271L-60.7043 112.703C-58.6541 107.358 -55.0954 102.919 -50.1861 100.085L-52.1861 96.6206ZM-79.0689 116.762C-74.1604 113.929 -68.5378 113.066 -62.8848 113.962L-62.2585 110.011C-68.7205 108.987 -75.286 109.96 -81.0689 113.298L-79.0689 116.762Z" fill="#131415" mask="url(#path-1-inside-1_7385_1640)"/>
</svg>
