<svg width="99" height="99" viewBox="0 0 99 99" fill="none" xmlns="http://www.w3.org/2000/svg">
<path fill-rule="evenodd" clip-rule="evenodd" d="M49.5006 1C39.9192 1 33.8767 11.3092 38.5582 19.6691L45.3815 31.8536C46.2122 33.337 46.6485 35.0088 46.6485 36.709C46.6485 38.8881 44.0118 39.9774 42.4709 38.4365C41.2683 37.2339 40.3944 35.7428 39.9327 34.1059L36.1429 20.6695C33.542 11.4479 21.9795 8.43087 15.2045 15.2059C8.42941 21.981 11.4465 33.5434 20.6681 36.1444L34.1085 39.9353C35.745 40.3969 37.2357 41.2706 38.438 42.4729C39.9779 44.0128 38.8871 46.6457 36.7094 46.6457C35.0093 46.6457 33.3376 46.2095 31.8542 45.3788L19.6691 38.5551C11.3092 33.8736 1 39.9161 1 49.4975C1 59.0788 11.3092 65.1214 19.6691 60.4399L31.8494 53.6189C33.3332 52.7879 35.0055 52.3516 36.7062 52.3516C38.8864 52.3516 39.9782 54.9877 38.4365 56.5293C37.2339 57.7319 35.7428 58.6059 34.1059 59.0676L20.6695 62.8573C11.4479 65.4583 8.43088 77.0207 15.2059 83.7958C21.981 90.5708 33.5434 87.5538 36.1444 78.3322L39.9353 64.8918C40.3969 63.2553 41.2706 61.7646 42.4729 60.5622C44.0134 59.0217 46.6475 60.1144 46.6475 62.2931C46.6475 63.9936 46.2112 65.6657 45.3803 67.1495L38.5587 79.3309C33.8772 87.6908 39.9197 98 49.501 98C59.0824 98 65.1249 87.6908 60.4434 79.3309L53.6204 67.1469C52.7896 65.6634 52.3534 63.9916 52.3534 62.2913C52.3534 60.1127 54.9885 59.0227 56.529 60.5632C57.7316 61.7658 58.6055 63.2568 59.0672 64.8936L62.8571 78.3305C65.458 87.5521 77.0205 90.5691 83.7955 83.7941C90.5706 77.019 87.5535 65.4566 78.3319 62.8556L64.8919 59.0648C63.2554 58.6032 61.7647 57.7295 60.5623 56.5272C59.0225 54.9873 60.1129 52.3543 62.2906 52.3543C63.9907 52.3543 65.6624 52.7905 67.1458 53.6212L79.3309 60.4449C87.6908 65.1264 98 59.0839 98 49.5025C98 39.9212 87.6908 33.8786 79.3309 38.5601L67.1506 45.3811C65.6667 46.2121 63.9945 46.6484 62.2938 46.6484C60.1136 46.6484 59.0218 44.0123 60.5635 42.4707C61.7661 41.2681 63.2572 40.3941 64.8941 39.9324L78.3305 36.1427C87.5521 33.5417 90.5691 21.9793 83.7941 15.2042C77.019 8.42917 65.4566 11.4462 62.8556 20.6678L59.0647 34.1082C58.6031 35.7447 57.7294 37.2354 56.5271 38.4378C54.9872 39.9776 52.3543 38.8843 52.3543 36.7066C52.3543 35.006 52.7907 33.3339 53.6216 31.8501L60.443 19.6691C65.1245 11.3092 59.082 1 49.5006 1Z" fill="#FFD405"/>
<path d="M38.5582 19.6691L37.6857 20.1577L38.5582 19.6691ZM45.3815 31.8536L44.509 32.3422L45.3815 31.8536ZM39.9327 34.1059L38.9702 34.3774L39.9327 34.1059ZM36.1429 20.6695L37.1054 20.3981L36.1429 20.6695ZM15.2045 15.2059L14.4974 14.4988L15.2045 15.2059ZM20.6681 36.1444L20.3966 37.1068L20.6681 36.1444ZM34.1085 39.9353L34.3799 38.9728L34.1085 39.9353ZM31.8542 45.3788L32.3428 44.5063L31.8542 45.3788ZM19.6691 38.5551L19.1805 39.4276L19.6691 38.5551ZM19.6691 60.4399L19.1805 59.5674L19.6691 60.4399ZM31.8494 53.6189L32.338 54.4914L31.8494 53.6189ZM34.1059 59.0676L34.3774 60.03L34.1059 59.0676ZM20.6695 62.8573L20.3981 61.8949L20.6695 62.8573ZM15.2059 83.7958L14.4988 84.5029H14.4988L15.2059 83.7958ZM36.1444 78.3322L35.1819 78.0607L36.1444 78.3322ZM39.9353 64.8918L40.8977 65.1632L39.9353 64.8918ZM45.3803 67.1495L46.2528 67.6381L45.3803 67.1495ZM38.5587 79.3309L39.4312 79.8195L38.5587 79.3309ZM60.4434 79.3309L61.3159 78.8423L60.4434 79.3309ZM53.6204 67.1469L54.4929 66.6583L53.6204 67.1469ZM59.0672 64.8936L58.1047 65.1651L59.0672 64.8936ZM62.8571 78.3305L61.8946 78.6019L62.8571 78.3305ZM83.7955 83.7941L84.5026 84.5012L83.7955 83.7941ZM78.3319 62.8556L78.0605 63.8181L78.3319 62.8556ZM64.8919 59.0648L64.6204 60.0273L64.8919 59.0648ZM67.1458 53.6212L66.6572 54.4937L67.1458 53.6212ZM79.3309 60.4449L78.8423 61.3174L79.3309 60.4449ZM79.3309 38.5601L79.8195 39.4326L79.3309 38.5601ZM67.1506 45.3811L66.662 44.5086L67.1506 45.3811ZM64.8941 39.9324L65.1655 40.8949L64.8941 39.9324ZM78.3305 36.1427L78.6019 37.1051L78.3305 36.1427ZM83.7941 15.2042L84.5012 14.4971L83.7941 15.2042ZM62.8556 20.6678L63.8181 20.9393L62.8556 20.6678ZM59.0647 34.1082L58.1023 33.8368V33.8368L59.0647 34.1082ZM53.6216 31.8501L52.7491 31.3615L53.6216 31.8501ZM60.443 19.6691L59.5705 19.1805L60.443 19.6691ZM39.4307 19.1805C35.1225 11.4872 40.6832 2 49.5006 2V0C39.1552 0 32.6309 11.1313 37.6857 20.1577L39.4307 19.1805ZM46.254 31.365L39.4307 19.1805L37.6857 20.1577L44.509 32.3422L46.254 31.365ZM47.6485 36.709C47.6485 34.8377 47.1683 32.9977 46.254 31.365L44.509 32.3422C45.2561 33.6763 45.6485 35.1799 45.6485 36.709H47.6485ZM38.9702 34.3774C39.4784 36.179 40.4402 37.82 41.7638 39.1436L43.178 37.7294C42.0964 36.6478 41.3104 35.3067 40.8951 33.8345L38.9702 34.3774ZM35.1805 20.941L38.9702 34.3774L40.8951 33.8345L37.1054 20.3981L35.1805 20.941ZM15.9116 15.913C22.1464 9.6782 32.7869 12.4547 35.1805 20.941L37.1054 20.3981C34.297 10.4412 21.8126 7.18355 14.4974 14.4988L15.9116 15.913ZM20.9395 35.1819C12.4532 32.7884 9.67674 22.1479 15.9116 15.913L14.4974 14.4988C7.18209 21.8141 10.4397 34.2985 20.3966 37.1068L20.9395 35.1819ZM34.3799 38.9728L20.9395 35.1819L20.3966 37.1068L33.837 40.8977L34.3799 38.9728ZM39.1451 41.7658C37.8218 40.4425 36.1811 39.4808 34.3799 38.9728L33.837 40.8977C35.3088 41.3129 36.6495 42.0987 37.7309 43.18L39.1451 41.7658ZM31.3656 46.2513C32.9983 47.1656 34.8382 47.6457 36.7094 47.6457V45.6457C35.1804 45.6457 33.6769 45.2534 32.3428 44.5063L31.3656 46.2513ZM19.1805 39.4276L31.3656 46.2513L32.3428 44.5063L20.1577 37.6826L19.1805 39.4276ZM2 49.4975C2 40.6801 11.4872 35.1194 19.1805 39.4276L20.1577 37.6826C11.1313 32.6278 0 39.1521 0 49.4975H2ZM19.1805 59.5674C11.4872 63.8756 2 58.3149 2 49.4975H0C0 59.8428 11.1313 66.3671 20.1577 61.3124L19.1805 59.5674ZM31.3608 52.7464L19.1805 59.5674L20.1577 61.3124L32.338 54.4914L31.3608 52.7464ZM36.7062 51.3516C34.8344 51.3516 32.9939 51.8318 31.3608 52.7464L32.338 54.4914C33.6726 53.744 35.1766 53.3516 36.7062 53.3516V51.3516ZM34.3774 60.03C36.179 59.5219 37.82 58.56 39.1436 57.2364L37.7294 55.8222C36.6478 56.9038 35.3067 57.6899 33.8345 58.1051L34.3774 60.03ZM20.941 63.8198L34.3774 60.03L33.8345 58.1051L20.3981 61.8949L20.941 63.8198ZM15.913 83.0887C9.6782 76.8538 12.4547 66.2133 20.941 63.8198L20.3981 61.8949C10.4412 64.7032 7.18355 77.1876 14.4988 84.5029L15.913 83.0887ZM35.1819 78.0607C32.7884 86.547 22.1479 89.3235 15.913 83.0887L14.4988 84.5029C21.8141 91.8182 34.2985 88.5605 37.1068 78.6037L35.1819 78.0607ZM38.9728 64.6203L35.1819 78.0607L37.1068 78.6037L40.8977 65.1632L38.9728 64.6203ZM41.7658 59.8551C40.4425 61.1784 39.4809 62.8191 38.9728 64.6203L40.8977 65.1632C41.3129 63.6914 42.0987 62.3507 43.18 61.2693L41.7658 59.8551ZM46.2528 67.6381C47.1673 66.0051 47.6475 64.1647 47.6475 62.2931H45.6475C45.6475 63.8225 45.2551 65.3264 44.5078 66.6609L46.2528 67.6381ZM39.4312 79.8195L46.2528 67.6381L44.5078 66.6609L37.6861 78.8423L39.4312 79.8195ZM49.501 97C40.6836 97 35.1229 87.5128 39.4312 79.8195L37.6861 78.8423C32.6314 87.8687 39.1557 99 49.501 99V97ZM59.5709 79.8195C63.8791 87.5128 58.3184 97 49.501 97V99C59.8464 99 66.3707 87.8687 61.3159 78.8423L59.5709 79.8195ZM52.7479 67.6355L59.5709 79.8195L61.3159 78.8423L54.4929 66.6583L52.7479 67.6355ZM51.3534 62.2913C51.3534 64.1627 51.8335 66.0027 52.7479 67.6355L54.4929 66.6583C53.7457 65.3241 53.3534 63.8205 53.3534 62.2913H51.3534ZM60.0296 64.6222C59.5215 62.8207 58.5597 61.1797 57.2361 59.8561L55.8219 61.2703C56.9035 62.3519 57.6895 63.6929 58.1047 65.1651L60.0296 64.6222ZM63.8195 78.059L60.0296 64.6222L58.1047 65.1651L61.8946 78.6019L63.8195 78.059ZM83.0884 83.087C76.8536 89.3218 66.2131 86.5453 63.8195 78.059L61.8946 78.6019C64.703 88.5588 77.1874 91.8164 84.5026 84.5012L83.0884 83.087ZM78.0605 63.8181C86.5468 66.2116 89.3233 76.8521 83.0884 83.087L84.5026 84.5012C91.8179 77.1859 88.5603 64.7015 78.6034 61.8932L78.0605 63.8181ZM64.6204 60.0273L78.0605 63.8181L78.6034 61.8932L65.1633 58.1024L64.6204 60.0273ZM59.8552 57.2343C61.1785 58.5576 62.8192 59.5192 64.6204 60.0273L65.1633 58.1024C63.6915 57.6872 62.3508 56.9014 61.2694 55.8201L59.8552 57.2343ZM67.6344 52.7487C66.0017 51.8344 64.1618 51.3543 62.2906 51.3543V53.3543C63.8196 53.3543 65.3231 53.7466 66.6572 54.4937L67.6344 52.7487ZM79.8195 59.5724L67.6344 52.7487L66.6572 54.4937L78.8423 61.3174L79.8195 59.5724ZM97 49.5025C97 58.3199 87.5128 63.8806 79.8195 59.5724L78.8423 61.3174C87.8687 66.3722 99 59.8479 99 49.5025H97ZM79.8195 39.4326C87.5128 35.1244 97 40.6851 97 49.5025H99C99 39.1572 87.8687 32.6329 78.8423 37.6876L79.8195 39.4326ZM67.6392 46.2536L79.8195 39.4326L78.8423 37.6876L66.662 44.5086L67.6392 46.2536ZM62.2938 47.6484C64.1656 47.6484 66.0061 47.1682 67.6392 46.2536L66.662 44.5086C65.3274 45.256 63.8234 45.6484 62.2938 45.6484V47.6484ZM64.6226 38.97C62.821 39.4781 61.18 40.44 59.8564 41.7636L61.2706 43.1778C62.3522 42.0962 63.6933 41.3101 65.1655 40.8949L64.6226 38.97ZM78.059 35.1802L64.6226 38.97L65.1655 40.8949L78.6019 37.1051L78.059 35.1802ZM83.087 15.9113C89.3218 22.1462 86.5453 32.7867 78.059 35.1802L78.6019 37.1051C88.5588 34.2968 91.8164 21.8124 84.5012 14.4971L83.087 15.9113ZM63.8181 20.9393C66.2116 12.453 76.8521 9.67649 83.087 15.9113L84.5012 14.4971C77.1859 7.18184 64.7015 10.4395 61.8932 20.3963L63.8181 20.9393ZM60.0272 34.3797L63.8181 20.9393L61.8932 20.3963L58.1023 33.8368L60.0272 34.3797ZM57.2342 39.1449C58.5575 37.8216 59.5191 36.1809 60.0272 34.3797L58.1023 33.8368C57.6871 35.3086 56.9013 36.6493 55.82 37.7306L57.2342 39.1449ZM52.7491 31.3615C51.8346 32.9945 51.3543 34.8349 51.3543 36.7066H53.3543C53.3543 35.1771 53.7468 33.6732 54.4941 32.3387L52.7491 31.3615ZM59.5705 19.1805L52.7491 31.3615L54.4941 32.3387L61.3155 20.1577L59.5705 19.1805ZM49.5006 2C58.318 2 63.8787 11.4872 59.5705 19.1805L61.3155 20.1577C66.3702 11.1313 59.8459 0 49.5006 0V2ZM55.82 37.7306C54.9118 38.6389 53.3543 37.9958 53.3543 36.7066H51.3543C51.3543 39.7728 55.0627 41.3163 57.2342 39.1449L55.82 37.7306ZM62.2938 45.6484C61.0046 45.6484 60.3588 44.0896 61.2706 43.1778L59.8564 41.7636C57.6848 43.9351 59.2225 47.6484 62.2938 47.6484V45.6484ZM61.2694 55.8201C60.3594 54.9101 61.004 53.3543 62.2906 53.3543V51.3543C59.2218 51.3543 57.6856 55.0646 59.8552 57.2343L61.2694 55.8201ZM53.3534 62.2913C53.3534 61.0049 54.9104 60.3588 55.8219 61.2703L57.2361 59.8561C55.0666 57.6866 51.3534 59.2204 51.3534 62.2913H53.3534ZM43.18 61.2693C44.0896 60.3598 45.6475 61.0039 45.6475 62.2931H47.6475C47.6475 59.225 43.9373 57.6836 41.7658 59.8551L43.18 61.2693ZM36.7062 53.3516C37.9954 53.3516 38.6412 54.9104 37.7294 55.8222L39.1436 57.2364C41.3151 55.0649 39.7775 51.3516 36.7062 51.3516V53.3516ZM37.7309 43.18C38.6407 44.0898 37.9963 45.6457 36.7094 45.6457V47.6457C39.7779 47.6457 41.315 43.9357 39.1451 41.7658L37.7309 43.18ZM45.6485 36.709C45.6485 37.9947 44.0907 38.6421 43.178 37.7294L41.7638 39.1436C43.9329 41.3127 47.6485 39.7815 47.6485 36.709H45.6485Z" fill="#131415"/>
</svg>
