<svg width="200" height="201" viewBox="0 0 200 201" fill="none" xmlns="http://www.w3.org/2000/svg">
<rect y="43.1562" width="162.885" height="162.885" rx="81.4427" transform="rotate(-15 0 43.1562)" fill="white"/>
<circle cx="99.7466" cy="100.745" r="64.4427" transform="rotate(-15 99.7466 100.745)" fill="#C4C4FA" stroke="#131415" stroke-width="2"/>
<path d="M145.68 88.4367C147.296 94.4689 147.709 100.76 146.894 106.952C146.078 113.143 144.052 119.114 140.929 124.522C137.807 129.93 133.65 134.67 128.695 138.472C123.741 142.274 118.086 145.062 112.054 146.679C106.022 148.295 99.7305 148.707 93.5391 147.892C87.3476 147.077 81.3773 145.05 75.969 141.928C70.5607 138.805 65.8205 134.648 62.0188 129.694C58.2171 124.739 55.4285 119.085 53.8122 113.053" stroke="#131415" stroke-width="2"/>
<path d="M87.7446 84.2898C89.2219 89.8032 89.4271 95.0469 88.6081 99.0494C87.7756 103.117 85.9724 105.585 83.7199 106.188C81.4674 106.792 78.6722 105.557 75.9172 102.45C73.2066 99.3931 70.7625 94.7494 69.2852 89.2359C67.8079 83.7225 67.6027 78.4788 68.4217 74.4763C69.2542 70.4083 71.0574 67.9411 73.3099 67.3375C75.5624 66.734 78.3576 67.969 81.1126 71.0758C83.8232 74.1325 86.2673 78.7763 87.7446 84.2898Z" stroke="#131415" stroke-width="2"/>
<path d="M124.452 74.4538C125.929 79.9673 126.134 85.2109 125.315 89.2134C124.483 93.2815 122.68 95.7487 120.427 96.3522C118.175 96.9558 115.379 95.7207 112.624 92.614C109.914 89.5572 107.47 84.9134 105.992 79.4C104.515 73.8865 104.31 68.6429 105.129 64.6404C105.961 60.5723 107.765 58.1051 110.017 57.5016C112.27 56.898 115.065 58.1331 117.82 61.2398C120.53 64.2966 122.974 68.9404 124.452 74.4538Z" stroke="#131415" stroke-width="2"/>
</svg>
