<svg width="328" height="518" viewBox="0 0 328 518" fill="none" xmlns="http://www.w3.org/2000/svg">
<path d="M237.264 2.49963C170.201 -10.9618 149.136 73.6415 150.219 150.984C150.729 187.406 106.386 224.894 73.0528 210.207L-52.7798 154.76C-77.5621 143.84 -105.806 160.186 -108.683 187.115L-122.141 313.09C-123.91 329.644 -115.24 345.562 -100.374 353.057L215.544 512.328C252.221 530.819 289.609 488.636 266.848 454.444L179.347 323.005C167.927 305.85 171.41 282.826 187.392 269.816L298.304 179.537C301.59 176.862 304.468 173.705 306.6 170.044C341.54 110.044 336.454 22.4099 237.264 2.49963Z" fill="#D1F26A" stroke="#131415" stroke-width="2"/>
</svg>
