<svg width="59" height="64" viewBox="0 0 59 64" fill="none" xmlns="http://www.w3.org/2000/svg">
<mask id="path-1-inside-1_7360_5881" fill="white">
<path fill-rule="evenodd" clip-rule="evenodd" d="M58.3344 22.0891C58.3344 27.6727 54.6617 32.3985 49.6003 33.9826C54.6617 35.5666 58.3344 40.2925 58.3344 45.8761C58.3344 52.7576 52.7558 58.3363 45.8742 58.3363C41.6132 58.3363 37.8518 56.1974 35.6049 52.9348C34.9116 59.16 29.632 64.0004 23.2219 64.0004C16.3403 64.0004 10.7617 58.4218 10.7617 51.5403C10.7617 48.195 12.08 45.1576 14.2255 42.9193C13.6488 43.0011 13.0594 43.0434 12.4602 43.0434C5.57861 43.0434 0 37.4648 0 30.5832C0 23.7017 5.57861 18.123 12.4602 18.123C12.9331 18.123 13.3999 18.1494 13.8592 18.2007C12.9658 16.4827 12.4609 14.5304 12.4609 12.4602C12.4609 5.57861 18.0395 0 24.9211 0C31.8027 0 37.3813 5.57861 37.3813 12.4602C37.3813 12.6349 37.3777 12.8087 37.3706 12.9817C39.5971 10.9018 42.587 9.62891 45.8742 9.62891C52.7558 9.62891 58.3344 15.2075 58.3344 22.0891Z"/>
</mask>
<path fill-rule="evenodd" clip-rule="evenodd" d="M58.3344 22.0891C58.3344 27.6727 54.6617 32.3985 49.6003 33.9826C54.6617 35.5666 58.3344 40.2925 58.3344 45.8761C58.3344 52.7576 52.7558 58.3363 45.8742 58.3363C41.6132 58.3363 37.8518 56.1974 35.6049 52.9348C34.9116 59.16 29.632 64.0004 23.2219 64.0004C16.3403 64.0004 10.7617 58.4218 10.7617 51.5403C10.7617 48.195 12.08 45.1576 14.2255 42.9193C13.6488 43.0011 13.0594 43.0434 12.4602 43.0434C5.57861 43.0434 0 37.4648 0 30.5832C0 23.7017 5.57861 18.123 12.4602 18.123C12.9331 18.123 13.3999 18.1494 13.8592 18.2007C12.9658 16.4827 12.4609 14.5304 12.4609 12.4602C12.4609 5.57861 18.0395 0 24.9211 0C31.8027 0 37.3813 5.57861 37.3813 12.4602C37.3813 12.6349 37.3777 12.8087 37.3706 12.9817C39.5971 10.9018 42.587 9.62891 45.8742 9.62891C52.7558 9.62891 58.3344 15.2075 58.3344 22.0891Z" fill="#C4C4FA"/>
<path d="M49.6003 33.9826L49.003 32.0739L42.9043 33.9826L49.003 35.8913L49.6003 33.9826ZM35.6049 52.9348L37.2521 51.8004L34.2107 47.3841L33.6172 52.7134L35.6049 52.9348ZM14.2255 42.9193L15.6693 44.3033L19.6725 40.1268L13.9446 40.9391L14.2255 42.9193ZM13.8592 18.2007L13.6371 20.1883L17.3635 20.6047L15.6336 17.278L13.8592 18.2007ZM37.3706 12.9817L35.3723 12.8994L35.1716 17.7726L38.7358 14.4432L37.3706 12.9817ZM50.1977 35.8913C56.0697 34.0535 60.3344 28.572 60.3344 22.0891H56.3344C56.3344 26.7734 53.2537 30.7435 49.003 32.0739L50.1977 35.8913ZM60.3344 45.8761C60.3344 39.3932 56.0697 33.9116 50.1977 32.0739L49.003 35.8913C53.2537 37.2216 56.3344 41.1917 56.3344 45.8761H60.3344ZM45.8742 60.3363C53.8604 60.3363 60.3344 53.8622 60.3344 45.8761H56.3344C56.3344 51.6531 51.6512 56.3363 45.8742 56.3363V60.3363ZM33.9577 54.0692C36.5619 57.8505 40.9275 60.3363 45.8742 60.3363V56.3363C42.2989 56.3363 39.1417 54.5443 37.2521 51.8004L33.9577 54.0692ZM23.2219 66.0004C30.6623 66.0004 36.7878 60.3827 37.5926 53.1562L33.6172 52.7134C33.0354 57.9373 28.6018 62.0004 23.2219 62.0004V66.0004ZM8.76172 51.5403C8.76172 59.5264 15.2358 66.0004 23.2219 66.0004V62.0004C17.4449 62.0004 12.7617 57.3173 12.7617 51.5403H8.76172ZM12.7816 41.5354C10.2936 44.1311 8.76172 47.6589 8.76172 51.5403H12.7617C12.7617 48.7311 13.8664 46.1842 15.6693 44.3033L12.7816 41.5354ZM12.4602 45.0434C13.1537 45.0434 13.8369 44.9944 14.5063 44.8995L13.9446 40.9391C13.4607 41.0078 12.9652 41.0434 12.4602 41.0434V45.0434ZM-2 30.5832C-2 38.5694 4.47404 45.0434 12.4602 45.0434V41.0434C6.68318 41.0434 2 36.3602 2 30.5832H-2ZM12.4602 16.123C4.47404 16.123 -2 22.5971 -2 30.5832H2C2 24.8062 6.68318 20.123 12.4602 20.123V16.123ZM14.0813 16.2131C13.5484 16.1535 13.0075 16.123 12.4602 16.123V20.123C12.8588 20.123 13.2514 20.1453 13.6371 20.1883L14.0813 16.2131ZM10.4609 12.4602C10.4609 14.8592 11.0467 17.1272 12.0847 19.1234L15.6336 17.278C14.8849 15.8383 14.4609 14.2017 14.4609 12.4602H10.4609ZM24.9211 -2C16.935 -2 10.4609 4.47404 10.4609 12.4602H14.4609C14.4609 6.68318 19.1441 2 24.9211 2V-2ZM39.3813 12.4602C39.3813 4.47404 32.9072 -2 24.9211 -2V2C30.6981 2 35.3813 6.68318 35.3813 12.4602H39.3813ZM39.3689 13.064C39.3771 12.8636 39.3813 12.6623 39.3813 12.4602H35.3813C35.3813 12.6074 35.3783 12.7539 35.3723 12.8994L39.3689 13.064ZM45.8742 7.62891C42.0604 7.62891 38.5876 9.10803 36.0053 11.5201L38.7358 14.4432C40.6067 12.6957 43.1137 11.6289 45.8742 11.6289V7.62891ZM60.3344 22.0891C60.3344 14.1029 53.8604 7.62891 45.8742 7.62891V11.6289C51.6512 11.6289 56.3344 16.3121 56.3344 22.0891H60.3344Z" fill="#131415" mask="url(#path-1-inside-1_7360_5881)"/>
</svg>
