<svg width="89" height="103" viewBox="0 0 89 103" fill="none" xmlns="http://www.w3.org/2000/svg">
<mask id="path-1-inside-1_7360_5890" fill="white">
<path fill-rule="evenodd" clip-rule="evenodd" d="M46.8372 3.81549C46.8259 3.38379 46.8234 2.95397 46.8296 2.52619C46.8491 1.1816 45.8447 0 44.5 0C42.5976 0 41.2043 1.68572 41.1679 3.5878C41.1665 3.66364 41.1647 3.73955 41.1628 3.81551L40.7731 18.6209C40.3396 35.0939 27.0941 48.3488 10.6214 48.794L2.91785 49.0022C1.29377 49.0461 0 50.3753 0 52C0 53.6247 1.29377 54.9539 2.91785 54.9978L10.6214 55.206C27.0941 55.6512 40.3396 68.9062 40.7731 85.3792L41.1628 100.185C41.202 101.677 42.3134 102.972 43.8058 102.995C44.0368 102.998 44.2682 103 44.5 103C45.8145 103 46.8104 101.867 46.8297 100.552C46.8315 100.43 46.834 100.307 46.8372 100.184L47.2269 85.3791C47.6604 68.9061 60.9059 55.6512 77.3786 55.206L86.1092 54.97C87.7182 54.9265 89 53.6096 89 52C89 50.3904 87.7182 49.0735 86.1092 49.03L77.3786 48.794C60.9059 48.3488 47.6604 35.0938 47.2269 18.6208L46.8372 3.81549Z"/>
</mask>
<path fill-rule="evenodd" clip-rule="evenodd" d="M46.8372 3.81549C46.8259 3.38379 46.8234 2.95397 46.8296 2.52619C46.8491 1.1816 45.8447 0 44.5 0C42.5976 0 41.2043 1.68572 41.1679 3.5878C41.1665 3.66364 41.1647 3.73955 41.1628 3.81551L40.7731 18.6209C40.3396 35.0939 27.0941 48.3488 10.6214 48.794L2.91785 49.0022C1.29377 49.0461 0 50.3753 0 52C0 53.6247 1.29377 54.9539 2.91785 54.9978L10.6214 55.206C27.0941 55.6512 40.3396 68.9062 40.7731 85.3792L41.1628 100.185C41.202 101.677 42.3134 102.972 43.8058 102.995C44.0368 102.998 44.2682 103 44.5 103C45.8145 103 46.8104 101.867 46.8297 100.552C46.8315 100.43 46.834 100.307 46.8372 100.184L47.2269 85.3791C47.6604 68.9061 60.9059 55.6512 77.3786 55.206L86.1092 54.97C87.7182 54.9265 89 53.6096 89 52C89 50.3904 87.7182 49.0735 86.1092 49.03L77.3786 48.794C60.9059 48.3488 47.6604 35.0938 47.2269 18.6208L46.8372 3.81549Z" fill="#FFD405"/>
<path d="M46.8372 3.81549L48.8366 3.76287V3.76287L46.8372 3.81549ZM41.1628 3.81551L39.1634 3.76289V3.76289L41.1628 3.81551ZM40.7731 18.6209L42.7724 18.6735L40.7731 18.6209ZM10.6214 48.794L10.6754 50.7933L10.6214 48.794ZM10.6214 55.206L10.6754 53.2067L10.6214 55.206ZM40.7731 85.3792L42.7724 85.3265L40.7731 85.3792ZM46.8372 100.184L44.8379 100.132L46.8372 100.184ZM47.2269 85.3791L45.2276 85.3265L47.2269 85.3791ZM77.3786 55.206L77.3246 53.2067L77.3786 55.206ZM77.3786 48.794L77.3246 50.7933L77.3786 48.794ZM47.2269 18.6208L45.2276 18.6735L47.2269 18.6208ZM43.8058 102.995L43.8364 100.995L43.8058 102.995ZM86.1092 54.97L86.0551 52.9708L86.1092 54.97ZM2.91785 49.0022L2.97189 51.0015L2.91785 49.0022ZM86.1092 49.03L86.0551 51.0292L86.1092 49.03ZM2.91785 54.9978L2.86382 56.997L2.91785 54.9978ZM46.8297 100.552L44.8299 100.523L46.8297 100.552ZM41.1679 3.5878L43.1676 3.62605L41.1679 3.5878ZM46.8296 2.52619L44.8298 2.49715L46.8296 2.52619ZM44.8298 2.49715C44.8232 2.95214 44.8259 3.40919 44.8379 3.8681L48.8366 3.76287C48.8259 3.3584 48.8236 2.9558 48.8294 2.55523L44.8298 2.49715ZM43.1621 3.86812C43.1642 3.78737 43.166 3.70668 43.1676 3.62605L39.1683 3.54955C39.1669 3.62061 39.1653 3.69172 39.1634 3.76289L43.1621 3.86812ZM42.7724 18.6735L43.1621 3.86812L39.1634 3.76289L38.7738 18.5682L42.7724 18.6735ZM10.6754 50.7933C28.2109 50.3194 42.311 36.2093 42.7724 18.6735L38.7738 18.5682C38.3683 33.9785 25.9773 46.3783 10.5674 46.7947L10.6754 50.7933ZM2.97189 51.0015L10.6754 50.7933L10.5674 46.7947L2.86382 47.003L2.97189 51.0015ZM10.6754 53.2067L2.97189 52.9985L2.86382 56.997L10.5674 57.2053L10.6754 53.2067ZM42.7724 85.3265C42.311 67.7908 28.2109 53.6806 10.6754 53.2067L10.5674 57.2053C25.9773 57.6217 38.3683 70.0215 38.7738 85.4318L42.7724 85.3265ZM43.1621 100.132L42.7724 85.3265L38.7738 85.4318L39.1634 100.237L43.1621 100.132ZM44.5 101C44.2784 101 44.0571 100.998 43.8364 100.995L43.7752 104.994C44.0164 104.998 44.258 105 44.5 105V101ZM48.8295 100.582C48.8312 100.467 48.8335 100.352 48.8366 100.237L44.8379 100.132C44.8345 100.262 44.8318 100.393 44.8299 100.523L48.8295 100.582ZM48.8366 100.237L49.2262 85.4317L45.2276 85.3265L44.8379 100.132L48.8366 100.237ZM49.2262 85.4317C49.6317 70.0215 62.0227 57.6217 77.4326 57.2053L77.3246 53.2067C59.7891 53.6806 45.689 67.7907 45.2276 85.3265L49.2262 85.4317ZM77.4326 57.2053L86.1632 56.9693L86.0551 52.9708L77.3246 53.2067L77.4326 57.2053ZM77.3246 50.7933L86.0551 51.0292L86.1632 47.0307L77.4326 46.7947L77.3246 50.7933ZM45.2276 18.6735C45.689 36.2092 59.7891 50.3194 77.3246 50.7933L77.4326 46.7947C62.0227 46.3783 49.6317 33.9785 49.2262 18.5682L45.2276 18.6735ZM44.8379 3.8681L45.2276 18.6735L49.2262 18.5682L48.8366 3.76287L44.8379 3.8681ZM39.1634 100.237C39.2259 102.611 41.0304 104.952 43.7752 104.994L43.8364 100.995C43.6889 100.993 43.5466 100.934 43.4153 100.791C43.2747 100.637 43.1692 100.402 43.1621 100.132L39.1634 100.237ZM86.1632 56.9693C88.8554 56.8965 91 54.6932 91 52H87C87 52.5261 86.581 52.9565 86.0551 52.9708L86.1632 56.9693ZM2.86382 47.003C0.156607 47.0761 -2 49.2918 -2 52H2C2 51.4588 2.43093 51.0161 2.97189 51.0015L2.86382 47.003ZM91 52C91 49.3068 88.8554 47.1035 86.1632 47.0307L86.0551 51.0292C86.581 51.0435 87 51.4739 87 52H91ZM-2 52C-2 54.7082 0.156609 56.9239 2.86382 56.997L2.97189 52.9985C2.43093 52.9839 2 52.5412 2 52H-2ZM44.5 105C47.0699 105 48.7966 102.819 48.8295 100.582L44.8299 100.523C44.8275 100.687 44.7631 100.824 44.685 100.908C44.6155 100.983 44.5555 101 44.5 101V105ZM44.5 -2C41.2756 -2 39.2208 0.806001 39.1683 3.54955L43.1676 3.62605C43.1878 2.56544 43.9195 2 44.5 2V-2ZM48.8294 2.55523C48.8625 0.272545 47.1306 -2 44.5 -2V2C44.5574 2 44.6187 2.01768 44.6892 2.09614C44.7687 2.18455 44.8323 2.328 44.8298 2.49715L48.8294 2.55523Z" fill="#131415" mask="url(#path-1-inside-1_7360_5890)"/>
</svg>
