<svg width="34" height="34" viewBox="0 0 34 34" fill="none" xmlns="http://www.w3.org/2000/svg">
<path d="M30.5455 2.13198L2.13416 13.6682C0.558665 14.308 0.64555 16.6273 2.26425 17.1409L8.73985 19.1953L23.6599 10.132C24.2754 9.75802 24.8951 10.6083 24.3721 11.1093L13.2613 21.7537L25.322 31.5983C26.3806 32.4623 27.9541 31.8585 28.2015 30.4933L32.9684 4.18171C33.2264 2.75791 31.857 1.59946 30.5455 2.13198Z" fill="#FFD405"/>
<path d="M17.9697 25.5969L13.2613 21.7537L12.2373 29.4597C12.2031 29.745 12.5305 29.9214 12.7381 29.7295L17.9697 25.5969Z" fill="#FFD405"/>
<path d="M13.2613 21.7537L25.322 31.5983C26.3806 32.4623 27.9541 31.8585 28.2015 30.4933L32.9684 4.18171C33.2264 2.75791 31.857 1.59946 30.5455 2.13198L2.13416 13.6682C0.558665 14.308 0.64555 16.6273 2.26425 17.1409L8.73985 19.1953L23.6599 10.132C24.2754 9.75802 24.8951 10.6083 24.3721 11.1093L13.2613 21.7537ZM13.2613 21.7537L12.2373 29.4597C12.2031 29.745 12.5305 29.9214 12.7381 29.7295L17.9697 25.5969L13.2613 21.7537Z" stroke="#131415" stroke-width="2"/>
</svg>
