<svg width="97" height="97" viewBox="0 0 97 97" fill="none" xmlns="http://www.w3.org/2000/svg">
<mask id="path-1-inside-1_7360_8594" fill="white">
<path fill-rule="evenodd" clip-rule="evenodd" d="M48.5006 0C38.9192 0 32.8767 10.3092 37.5582 18.6691L44.3815 30.8536C45.0906 32.1197 44.1612 33.5443 42.8114 34.0772C42.6507 34.1406 42.4913 34.2066 42.3333 34.2752C40.9973 34.8552 39.3269 34.5044 38.9315 33.1026L35.1427 19.6697C32.5417 10.4481 20.9793 7.43105 14.2042 14.2061C7.42918 20.9812 10.4462 32.5436 19.6678 35.1446L33.1111 38.9363C34.5075 39.3301 34.8577 40.9939 34.2791 42.3243C34.2096 42.4841 34.1428 42.6453 34.0785 42.8079C33.5446 44.1595 32.1181 45.0905 30.8501 44.3804L18.6691 37.559C10.3092 32.8775 0 38.92 0 48.5014C0 58.0828 10.3092 64.1253 18.6691 59.4438L30.8535 52.6205C32.12 51.9113 33.5449 52.8407 34.078 54.1908C34.1417 54.352 34.208 54.512 34.2769 54.6705C34.8565 56.0046 34.5059 57.6727 33.1061 58.0675L19.6695 61.8573C10.4479 64.4583 7.43087 76.0207 14.2059 82.7958C20.981 89.5708 32.5434 86.5538 35.1444 77.3322L38.9352 63.8919C39.3296 62.4938 40.9955 62.1434 42.3277 62.7223C42.4865 62.7913 42.6466 62.8577 42.808 62.9215C44.1595 63.4554 45.0903 64.8817 44.3803 66.1495L37.5587 78.3309C32.8772 86.6908 38.9197 97 48.501 97C58.0824 97 64.1249 86.6908 59.4434 78.3309L52.6204 66.1469C51.911 64.8803 52.8407 63.4552 54.1909 62.9219C54.3522 62.8582 54.5121 62.7919 54.6707 62.7231C56.0047 62.1435 57.6727 62.494 58.0676 63.8939L61.8573 77.3303C64.4583 86.5519 76.0207 89.5689 82.7958 82.7939C89.5708 76.0188 86.5538 64.4564 77.3322 61.8554L63.8918 58.0645C62.4938 57.6702 62.1434 56.0045 62.7223 54.6723C62.7913 54.5136 62.8577 54.3535 62.9215 54.1921C63.4554 52.8405 64.8819 51.9095 66.1499 52.6196L78.3309 59.441C86.6908 64.1225 97 58.08 97 48.4986C97 38.9172 86.6908 32.8747 78.3309 37.5562L66.1465 44.3795C64.88 45.0887 63.4551 44.1593 62.922 42.8092C62.8583 42.648 62.792 42.488 62.7231 42.3295C62.1435 40.9954 62.4941 39.3273 63.8939 38.9325L77.3305 35.1427C86.5521 32.5417 89.5691 20.9793 82.7941 14.2042C76.019 7.42918 64.4566 10.4462 61.8556 19.6678L58.0648 33.1081C57.6704 34.5062 56.0045 34.8566 54.6723 34.2777C54.5143 34.209 54.355 34.1429 54.1943 34.0794C52.8424 33.5452 51.9114 32.1184 52.6216 30.8501L59.443 18.6691C64.1245 10.3092 58.082 0 48.5006 0Z"/>
</mask>
<path fill-rule="evenodd" clip-rule="evenodd" d="M48.5006 0C38.9192 0 32.8767 10.3092 37.5582 18.6691L44.3815 30.8536C45.0906 32.1197 44.1612 33.5443 42.8114 34.0772C42.6507 34.1406 42.4913 34.2066 42.3333 34.2752C40.9973 34.8552 39.3269 34.5044 38.9315 33.1026L35.1427 19.6697C32.5417 10.4481 20.9793 7.43105 14.2042 14.2061C7.42918 20.9812 10.4462 32.5436 19.6678 35.1446L33.1111 38.9363C34.5075 39.3301 34.8577 40.9939 34.2791 42.3243C34.2096 42.4841 34.1428 42.6453 34.0785 42.8079C33.5446 44.1595 32.1181 45.0905 30.8501 44.3804L18.6691 37.559C10.3092 32.8775 0 38.92 0 48.5014C0 58.0828 10.3092 64.1253 18.6691 59.4438L30.8535 52.6205C32.12 51.9113 33.5449 52.8407 34.078 54.1908C34.1417 54.352 34.208 54.512 34.2769 54.6705C34.8565 56.0046 34.5059 57.6727 33.1061 58.0675L19.6695 61.8573C10.4479 64.4583 7.43087 76.0207 14.2059 82.7958C20.981 89.5708 32.5434 86.5538 35.1444 77.3322L38.9352 63.8919C39.3296 62.4938 40.9955 62.1434 42.3277 62.7223C42.4865 62.7913 42.6466 62.8577 42.808 62.9215C44.1595 63.4554 45.0903 64.8817 44.3803 66.1495L37.5587 78.3309C32.8772 86.6908 38.9197 97 48.501 97C58.0824 97 64.1249 86.6908 59.4434 78.3309L52.6204 66.1469C51.911 64.8803 52.8407 63.4552 54.1909 62.9219C54.3522 62.8582 54.5121 62.7919 54.6707 62.7231C56.0047 62.1435 57.6727 62.494 58.0676 63.8939L61.8573 77.3303C64.4583 86.5519 76.0207 89.5689 82.7958 82.7939C89.5708 76.0188 86.5538 64.4564 77.3322 61.8554L63.8918 58.0645C62.4938 57.6702 62.1434 56.0045 62.7223 54.6723C62.7913 54.5136 62.8577 54.3535 62.9215 54.1921C63.4554 52.8405 64.8819 51.9095 66.1499 52.6196L78.3309 59.441C86.6908 64.1225 97 58.08 97 48.4986C97 38.9172 86.6908 32.8747 78.3309 37.5562L66.1465 44.3795C64.88 45.0887 63.4551 44.1593 62.922 42.8092C62.8583 42.648 62.792 42.488 62.7231 42.3295C62.1435 40.9954 62.4941 39.3273 63.8939 38.9325L77.3305 35.1427C86.5521 32.5417 89.5691 20.9793 82.7941 14.2042C76.019 7.42918 64.4566 10.4462 61.8556 19.6678L58.0648 33.1081C57.6704 34.5062 56.0045 34.8566 54.6723 34.2777C54.5143 34.209 54.355 34.1429 54.1943 34.0794C52.8424 33.5452 51.9114 32.1184 52.6216 30.8501L59.443 18.6691C64.1245 10.3092 58.082 0 48.5006 0Z" fill="#D1F26A"/>
<path d="M37.5582 18.6691L35.8132 19.6463L37.5582 18.6691ZM35.1427 19.6697L33.2178 20.2126V20.2126L35.1427 19.6697ZM14.2042 14.2061L15.6184 15.6203V15.6203L14.2042 14.2061ZM19.6678 35.1446L19.1249 37.0695L19.6678 35.1446ZM18.6691 37.559L17.6918 39.304L18.6691 37.559ZM18.6691 59.4438L17.6919 57.6988L18.6691 59.4438ZM19.6695 61.8573L19.1266 59.9324H19.1266L19.6695 61.8573ZM14.2059 82.7958L12.7917 84.21H12.7917L14.2059 82.7958ZM35.1444 77.3322L33.2195 76.7893L35.1444 77.3322ZM37.5587 78.3309L39.3037 79.3082L37.5587 78.3309ZM59.4434 78.3309L61.1884 77.3537L59.4434 78.3309ZM61.8573 77.3303L63.7822 76.7874L61.8573 77.3303ZM82.7958 82.7939L84.21 84.2081L82.7958 82.7939ZM77.3322 61.8554L76.7893 63.7803L77.3322 61.8554ZM78.3309 59.441L77.3537 61.186V61.186L78.3309 59.441ZM78.3309 37.5562L79.3081 39.3012L78.3309 37.5562ZM77.3305 35.1427L76.7876 33.2178L77.3305 35.1427ZM82.7941 14.2042L84.2083 12.79L82.7941 14.2042ZM61.8556 19.6678L63.7805 20.2107V20.2107L61.8556 19.6678ZM59.443 18.6691L57.698 17.6919L59.443 18.6691ZM54.1943 34.0794L53.4592 35.9394L54.1943 34.0794ZM62.7231 42.3295L64.5575 41.5325L62.7231 42.3295ZM62.922 42.8092L64.7822 42.0746L62.922 42.8092ZM62.9215 54.1921L64.7816 54.9269L62.9215 54.1921ZM62.7223 54.6723L64.5566 55.4695L62.7223 54.6723ZM54.1909 62.9219L53.4563 61.0617L54.1909 62.9219ZM42.3277 62.7223L43.1249 60.8881L42.3277 62.7223ZM34.2769 54.6705L36.1113 53.8736L34.2769 54.6705ZM34.078 54.1908L32.2178 54.9254L34.078 54.1908ZM34.0785 42.8079L32.2184 42.0731L34.0785 42.8079ZM54.6707 62.7231L55.4676 64.5574L54.6707 62.7231ZM34.2791 42.3243L32.4451 41.5267L34.2791 42.3243ZM42.3333 34.2752L41.5369 32.4406L42.3333 34.2752ZM42.808 62.9215L42.0732 64.7816L42.808 62.9215ZM42.8114 34.0772L43.5457 35.9375L42.8114 34.0772ZM39.3032 17.6919C35.3683 10.6652 40.4472 2 48.5006 2V-2C37.3912 -2 30.3851 9.95329 35.8132 19.6463L39.3032 17.6919ZM46.1265 29.8764L39.3032 17.6919L35.8132 19.6463L42.6365 31.8308L46.1265 29.8764ZM43.1297 36.1098C43.2672 36.0501 43.4059 35.9927 43.5457 35.9375L42.0771 32.2168C41.8955 32.2885 41.7154 32.3631 41.5369 32.4406L43.1297 36.1098ZM33.2178 20.2126L37.0066 33.6456L40.8564 32.5597L37.0676 19.1268L33.2178 20.2126ZM15.6184 15.6203C21.3131 9.9257 31.0316 12.4616 33.2178 20.2126L37.0676 19.1268C34.0518 8.43458 20.6455 4.9364 12.79 12.7919L15.6184 15.6203ZM20.2107 33.2197C12.4597 31.0335 9.92383 21.3149 15.6184 15.6203L12.79 12.7919C4.93453 20.6474 8.43271 34.0537 19.1249 37.0695L20.2107 33.2197ZM33.6541 37.0114L20.2107 33.2197L19.1249 37.0695L32.5682 40.8612L33.6541 37.0114ZM35.9387 43.5427C35.9945 43.4012 36.0527 43.261 36.1132 43.1219L32.4451 41.5267C32.3665 41.7073 32.291 41.8894 32.2184 42.0731L35.9387 43.5427ZM17.6918 39.304L29.8729 46.1254L31.8273 42.6354L19.6463 35.814L17.6918 39.304ZM2 48.5014C2 40.448 10.6652 35.3691 17.6918 39.304L19.6463 35.814C9.95329 30.3859 -2 37.392 -2 48.5014H2ZM17.6919 57.6988C10.6652 61.6337 2 56.5548 2 48.5014H-2C-2 59.6107 9.95329 66.6168 19.6463 61.1888L17.6919 57.6988ZM29.8763 50.8755L17.6919 57.6988L19.6463 61.1888L31.8307 54.3655L29.8763 50.8755ZM36.1113 53.8736C36.0513 53.7356 35.9936 53.5965 35.9382 53.4562L32.2178 54.9254C32.2898 55.1076 32.3647 55.2883 32.4425 55.4675L36.1113 53.8736ZM20.2124 63.7822L33.649 59.9924L32.5631 56.1426L19.1266 59.9324L20.2124 63.7822ZM15.6201 81.3816C9.92552 75.6869 12.4614 65.9684 20.2124 63.7822L19.1266 59.9324C8.43441 62.9482 4.93622 76.3545 12.7917 84.21L15.6201 81.3816ZM33.2195 76.7893C31.0333 84.5403 21.3148 87.0762 15.6201 81.3816L12.7917 84.21C20.6472 92.0655 34.0535 88.5673 37.0693 77.8751L33.2195 76.7893ZM37.0103 63.3489L33.2195 76.7893L37.0693 77.8751L40.8601 64.4348L37.0103 63.3489ZM43.5428 61.0614C43.4023 61.0059 43.263 60.9481 43.1249 60.8881L41.5306 64.5566C41.7099 64.6346 41.8908 64.7096 42.0732 64.7816L43.5428 61.0614ZM39.3037 79.3082L46.1253 67.1267L42.6353 65.1723L35.8136 77.3537L39.3037 79.3082ZM48.501 95C40.4476 95 35.3687 86.3348 39.3037 79.3082L35.8136 77.3537C30.3856 87.0467 37.3917 99 48.501 99V95ZM57.6984 79.3081C61.6333 86.3348 56.5544 95 48.501 95V99C59.6104 99 66.6165 87.0467 61.1884 77.3537L57.6984 79.3081ZM50.8753 67.1241L57.6984 79.3081L61.1884 77.3537L54.3654 65.1697L50.8753 67.1241ZM53.8737 60.8887C53.7357 60.9486 53.5966 61.0063 53.4563 61.0617L54.9256 64.7821C55.1078 64.7102 55.2885 64.6352 55.4676 64.5574L53.8737 60.8887ZM63.7822 76.7874L59.9925 63.3509L56.1427 64.4368L59.9324 77.8732L63.7822 76.7874ZM81.3816 81.3796C75.6869 87.0743 65.9684 84.5384 63.7822 76.7874L59.9324 77.8732C62.9482 88.5654 76.3545 92.0636 84.21 84.2081L81.3816 81.3796ZM76.7893 63.7803C84.5403 65.9665 87.0762 75.685 81.3816 81.3796L84.21 84.2081C92.0655 76.3526 88.5673 62.9463 77.8751 59.9305L76.7893 63.7803ZM63.3488 59.9894L76.7893 63.7803L77.8751 59.9305L64.4347 56.1396L63.3488 59.9894ZM61.0613 53.4573C61.0058 53.5978 60.9481 53.7371 60.8881 53.8752L64.5566 55.4695C64.6345 55.2902 64.7095 55.1093 64.7816 54.9269L61.0613 53.4573ZM79.3081 57.696L67.1271 50.8746L65.1727 54.3646L77.3537 61.186L79.3081 57.696ZM95 48.4986C95 56.552 86.3348 61.6309 79.3081 57.696L77.3537 61.186C87.0467 66.6141 99 59.608 99 48.4986H95ZM79.3081 39.3012C86.3348 35.3663 95 40.4452 95 48.4986H99C99 37.3893 87.0467 30.3832 77.3537 35.8112L79.3081 39.3012ZM67.1237 46.1245L79.3081 39.3012L77.3537 35.8112L65.1693 42.6345L67.1237 46.1245ZM60.8887 43.1264C60.9487 43.2644 61.0064 43.4035 61.0618 43.5438L64.7822 42.0746C64.7102 41.8924 64.6353 41.7117 64.5575 41.5325L60.8887 43.1264ZM76.7876 33.2178L63.351 37.0076L64.4369 40.8574L77.8734 37.0676L76.7876 33.2178ZM81.3799 15.6184C87.0745 21.3131 84.5386 31.0316 76.7876 33.2178L77.8734 37.0676C88.5656 34.0518 92.0638 20.6455 84.2083 12.79L81.3799 15.6184ZM63.7805 20.2107C65.9667 12.4597 75.6852 9.92383 81.3799 15.6184L84.2083 12.79C76.3528 4.93453 62.9465 8.4327 59.9307 19.1249L63.7805 20.2107ZM59.9897 33.6511L63.7805 20.2107L59.9307 19.1249L56.1399 32.5652L59.9897 33.6511ZM53.4592 35.9394C53.599 35.9947 53.7377 36.0522 53.8751 36.1119L55.4694 32.4434C55.2909 32.3658 55.1109 32.2911 54.9294 32.2194L53.4592 35.9394ZM57.698 17.6919L50.8766 29.8729L54.3666 31.8273L61.188 19.6463L57.698 17.6919ZM48.5006 2C56.554 2 61.6329 10.6652 57.698 17.6919L61.188 19.6463C66.616 9.95329 59.6099 -2 48.5006 -2V2ZM54.9294 32.2194C54.7987 32.1678 54.679 32.0943 54.5814 32.0106C54.483 31.926 54.425 31.8465 54.3961 31.7928C54.3682 31.7408 54.3761 31.7306 54.3769 31.7613C54.378 31.8016 54.3648 31.8305 54.3666 31.8273L50.8766 29.8729C50.1368 31.1938 50.2887 32.6003 50.8732 33.6872C51.4325 34.7273 52.3908 35.5172 53.4592 35.9394L54.9294 32.2194ZM56.1399 32.5652C56.1389 32.5687 56.1501 32.5387 56.1795 32.5108C56.202 32.4895 56.2007 32.5021 56.1447 32.5189C56.0867 32.5363 55.9901 32.5514 55.8613 32.5416C55.7338 32.5318 55.5978 32.4992 55.4694 32.4434L53.8751 36.1119C54.9289 36.5699 56.1649 36.6895 57.2958 36.3497C58.4775 35.9946 59.5789 35.1075 59.9897 33.651L56.1399 32.5652ZM64.5575 41.5325C64.5015 41.4036 64.4687 41.2671 64.4589 41.139C64.449 41.0096 64.4642 40.9125 64.4817 40.8541C64.4986 40.7977 64.5114 40.796 64.4903 40.8182C64.4627 40.8474 64.433 40.8585 64.4369 40.8574L63.351 37.0076C61.8935 37.4187 61.006 38.5209 60.6508 39.7034C60.3109 40.8351 60.4306 42.0719 60.8887 43.1264L64.5575 41.5325ZM65.1693 42.6345C65.1664 42.6361 65.1958 42.6228 65.2365 42.6239C65.2676 42.6247 65.2578 42.6327 65.2063 42.6051C65.1531 42.5764 65.0741 42.5188 64.9899 42.4209C64.9066 42.3238 64.8335 42.2047 64.7822 42.0746L61.0618 43.5438C61.4835 44.6117 62.2728 45.5693 63.3122 46.1281C64.3983 46.7121 65.8038 46.8637 67.1237 46.1245L65.1693 42.6345ZM64.7816 54.9269C64.8332 54.7963 64.9065 54.6767 64.9902 54.5793C65.0747 54.4809 65.154 54.423 65.2077 54.3941C65.2595 54.3663 65.2697 54.3741 65.2389 54.375C65.1985 54.376 65.1695 54.3628 65.1727 54.3646L67.1271 50.8746C65.8062 50.1349 64.3999 50.2868 63.3131 50.8713C62.2731 51.4306 61.4834 52.3889 61.0613 53.4573L64.7816 54.9269ZM64.4347 56.1396C64.4313 56.1387 64.4613 56.1499 64.4891 56.1793C64.5105 56.2018 64.4979 56.2005 64.4811 56.1446C64.4637 56.0866 64.4486 55.99 64.4584 55.8613C64.4681 55.7338 64.5008 55.5978 64.5566 55.4695L60.8881 53.8752C60.4301 54.9289 60.3105 56.1649 60.6503 57.2957C61.0054 58.4773 61.8924 59.5786 63.3488 59.9894L64.4347 56.1396ZM54.3654 65.1697C54.3638 65.1668 54.377 65.1962 54.3759 65.2367C54.3751 65.2678 54.3671 65.258 54.3948 65.2065C54.4235 65.1532 54.4811 65.0741 54.5791 64.99C54.6762 64.9066 54.7954 64.8335 54.9256 64.7821L53.4563 61.0617C52.3884 61.4835 51.4307 62.2728 50.8718 63.3123C50.2878 64.3985 50.1361 65.8041 50.8753 67.1241L54.3654 65.1697ZM40.8601 64.4348C40.8611 64.4314 40.8499 64.4613 40.8205 64.4892C40.798 64.5105 40.7993 64.4979 40.8553 64.4811C40.9133 64.4637 41.0099 64.4486 41.1387 64.4584C41.2662 64.4682 41.4022 64.5008 41.5306 64.5566L43.1249 60.8881C42.0711 60.4301 40.8351 60.3105 39.7042 60.6503C38.5225 61.0054 37.4212 61.8925 37.0103 63.3489L40.8601 64.4348ZM32.4425 55.4675C32.4985 55.5964 32.5313 55.7329 32.5411 55.861C32.551 55.9904 32.5358 56.0875 32.5183 56.1459C32.5013 56.2023 32.4886 56.204 32.5097 56.1818C32.5373 56.1526 32.567 56.1415 32.5631 56.1426L33.649 59.9924C35.1065 59.5813 35.994 58.4791 36.3492 57.2966C36.6891 56.1649 36.5694 54.9281 36.1113 53.8736L32.4425 55.4675ZM31.8307 54.3655C31.8335 54.3639 31.8042 54.3772 31.7635 54.3761C31.7324 54.3753 31.7422 54.3673 31.7937 54.3949C31.8469 54.4236 31.9259 54.4812 32.0101 54.5791C32.0934 54.6762 32.1665 54.7953 32.2178 54.9254L35.9382 53.4562C35.5165 52.3884 34.7272 51.4307 33.6878 50.8719C32.6017 50.2879 31.1962 50.1363 29.8763 50.8755L31.8307 54.3655ZM32.2184 42.0731C32.1668 42.2037 32.0935 42.3233 32.0098 42.4207C31.9253 42.5191 31.846 42.577 31.7923 42.6059C31.7405 42.6337 31.7303 42.6259 31.7611 42.625C31.8015 42.624 31.8305 42.6372 31.8273 42.6354L29.8729 46.1254C31.1938 46.8651 32.6001 46.7132 33.6869 46.1287C34.7269 45.5694 35.5166 44.6111 35.9387 43.5427L32.2184 42.0731ZM55.4676 64.5574C55.5965 64.5014 55.733 64.4686 55.8611 64.4588C55.9904 64.4489 56.0876 64.4641 56.146 64.4816C56.2024 64.4986 56.2041 64.5114 56.1818 64.4903C56.1526 64.4626 56.1416 64.433 56.1427 64.4368L59.9925 63.3509C59.5814 61.8934 58.4792 61.0059 57.2966 60.6507C56.165 60.3108 54.9282 60.4306 53.8737 60.8887L55.4676 64.5574ZM32.5682 40.8612C32.5713 40.862 32.541 40.8506 32.5129 40.8209C32.4913 40.7982 32.5037 40.7991 32.5204 40.8547C32.5376 40.9122 32.5527 41.0083 32.5429 41.1365C32.5332 41.2635 32.5006 41.3989 32.4451 41.5267L36.1132 43.1219C36.5712 42.0688 36.6907 40.8335 36.3511 39.7034C35.9962 38.5225 35.1095 37.4219 33.6541 37.0114L32.5682 40.8612ZM41.5369 32.4406C41.4074 32.4969 41.2702 32.5298 41.1415 32.5396C41.0115 32.5495 40.9138 32.5343 40.8549 32.5166C40.798 32.4995 40.7959 32.4865 40.8179 32.5073C40.8467 32.5347 40.8576 32.564 40.8564 32.5597L37.0066 33.6456C37.418 35.1042 38.521 35.9922 39.7044 36.3476C40.8368 36.6877 42.0745 36.5679 43.1297 36.1098L41.5369 32.4406ZM42.0732 64.7816C42.2038 64.8332 42.3234 64.9065 42.4207 64.9902C42.5191 65.0746 42.5769 65.1539 42.6058 65.2075C42.6336 65.2593 42.6257 65.2694 42.6249 65.2386C42.6238 65.1982 42.637 65.1691 42.6353 65.1723L46.1253 67.1267C46.8649 65.8059 46.713 64.3997 46.1286 63.313C45.5694 62.2731 44.6111 61.4834 43.5428 61.0614L42.0732 64.7816ZM42.6365 31.8308C42.638 31.8335 42.6248 31.8041 42.6258 31.7633C42.6267 31.7321 42.6347 31.7418 42.6071 31.7932C42.5785 31.8464 42.5209 31.9253 42.4231 32.0093C42.3261 32.0925 42.2071 32.1655 42.0771 32.2168L43.5457 35.9375C44.6136 35.516 45.5712 34.7268 46.13 33.6875C46.714 32.6015 46.8656 31.1962 46.1265 29.8763L42.6365 31.8308Z" fill="#131415" mask="url(#path-1-inside-1_7360_8594)"/>
</svg>
