<svg width="134" height="155" viewBox="0 0 134 155" fill="none" xmlns="http://www.w3.org/2000/svg">
<path fill-rule="evenodd" clip-rule="evenodd" d="M104.193 2.70624C104.175 1.76959 103.437 1 102.5 1C101.169 1 100.135 2.10535 100.11 3.43635L99.8811 15.4606C99.621 29.1355 88.6553 40.1894 74.983 40.5589C74.7109 40.5662 74.4397 40.5693 74.1695 40.5682C73.002 40.5634 72 41.473 72 42.6405C72 43.808 73.002 44.7177 74.1695 44.7128C74.4397 44.7117 74.7109 44.7148 74.983 44.7221C88.6553 45.0917 99.621 56.1456 99.8811 69.8204L100.104 81.5579C100.13 82.892 101.166 84 102.5 84C103.44 84 104.18 83.2278 104.198 82.2881L104.435 69.8204C104.695 56.1455 115.661 45.0917 129.333 44.7221C129.813 44.7092 130.29 44.7095 130.764 44.7227C131.958 44.7561 133 43.8348 133 42.6405C133 41.4462 131.958 40.5249 130.764 40.5583C130.29 40.5715 129.813 40.5718 129.333 40.5588C115.661 40.1893 104.695 29.1354 104.435 15.4606L104.193 2.70624ZM47.8296 53.5262C47.8234 53.954 47.8259 54.3838 47.8372 54.8155L48.2269 69.6208C48.6604 86.0938 61.9059 99.3488 78.3786 99.794L87.1092 100.03C88.7182 100.073 90 101.39 90 103C90 104.61 88.7182 105.927 87.1092 105.97L78.3786 106.206C61.9059 106.651 48.6604 119.906 48.2269 136.379L47.8372 151.184C47.834 151.307 47.8315 151.43 47.8297 151.552C47.8104 152.867 46.8145 154 45.5 154C45.2682 154 45.0368 153.998 44.8058 153.995C43.3134 153.972 42.202 152.677 42.1628 151.185L41.7731 136.379C41.3396 119.906 28.0941 106.651 11.6214 106.206L3.91785 105.998C2.29377 105.954 1 104.625 1 103C1 101.375 2.29377 100.046 3.91785 100.002L11.6214 99.794C28.0941 99.3488 41.3396 86.0939 41.7731 69.6209L42.1628 54.8155C42.1641 54.7632 42.1654 54.7109 42.1665 54.6586C42.167 54.635 42.1675 54.6114 42.1679 54.5878C42.2043 52.6857 43.5976 51 45.5 51C46.8447 51 47.8491 52.1816 47.8296 53.5262Z" fill="white"/>
<path d="M104.193 2.70624L105.193 2.68723V2.68723L104.193 2.70624ZM100.11 3.43635L101.11 3.45536V3.45536L100.11 3.43635ZM99.8811 15.4606L100.881 15.4796L99.8811 15.4606ZM74.983 40.5589L74.9559 39.5593H74.9559L74.983 40.5589ZM74.1695 40.5682L74.1736 39.5682L74.1695 40.5682ZM74.1695 44.7128L74.1736 45.7128L74.1695 44.7128ZM74.983 44.7221L74.9559 45.7218H74.9559L74.983 44.7221ZM99.8811 69.8204L100.881 69.8014L99.8811 69.8204ZM100.104 81.5579L99.1044 81.5769L100.104 81.5579ZM104.198 82.2881L103.199 82.2691L104.198 82.2881ZM104.435 69.8204L103.436 69.8014L104.435 69.8204ZM129.333 44.7221L129.306 43.7225H129.306L129.333 44.7221ZM130.764 44.7227L130.792 43.7231H130.792L130.764 44.7227ZM130.764 40.5583L130.792 41.5579H130.792L130.764 40.5583ZM129.333 40.5588L129.306 41.5585H129.306L129.333 40.5588ZM104.435 15.4606L103.436 15.4796V15.4796L104.435 15.4606ZM47.8372 54.8155L46.8376 54.8418L47.8372 54.8155ZM47.8296 53.5262L46.8297 53.5117V53.5117L47.8296 53.5262ZM48.2269 69.6208L47.2272 69.6471L48.2269 69.6208ZM78.3786 99.794L78.3516 100.794L78.3786 99.794ZM87.1092 100.03L87.1362 99.0303L87.1092 100.03ZM87.1092 105.97L87.1362 106.97L87.1092 105.97ZM78.3786 106.206L78.3516 105.206L78.3786 106.206ZM48.2269 136.379L47.2272 136.353L48.2269 136.379ZM47.8372 151.184L48.8369 151.211V151.211L47.8372 151.184ZM47.8297 151.552L46.8298 151.538V151.538L47.8297 151.552ZM44.8058 153.995L44.8211 152.995H44.8211L44.8058 153.995ZM42.1628 151.185L41.1631 151.211L42.1628 151.185ZM41.7731 136.379L42.7728 136.353L41.7731 136.379ZM11.6214 106.206L11.6484 105.206H11.6484L11.6214 106.206ZM3.91785 105.998L3.94487 104.998H3.94487L3.91785 105.998ZM3.91785 100.002L3.94487 101.002H3.94487L3.91785 100.002ZM11.6214 99.794L11.6484 100.794H11.6484L11.6214 99.794ZM41.7731 69.6209L42.7728 69.6472L41.7731 69.6209ZM42.1628 54.8155L41.1631 54.7892V54.7892L42.1628 54.8155ZM42.1665 54.6586L41.1667 54.6372V54.6373L42.1665 54.6586ZM42.1679 54.5878L41.1681 54.5687V54.5687L42.1679 54.5878ZM102.5 2C102.858 2 103.185 2.29827 103.193 2.72526L105.193 2.68723C105.165 1.2409 104.016 0 102.5 0V2ZM101.11 3.45536C101.125 2.61919 101.762 2 102.5 2V0C100.575 0 99.1446 1.59151 99.1099 3.41734L101.11 3.45536ZM100.881 15.4796L101.11 3.45536L99.1099 3.41734L98.8812 15.4416L100.881 15.4796ZM75.01 41.5585C89.2165 41.1746 100.611 29.6888 100.881 15.4796L98.8812 15.4416C98.6314 28.5822 88.0941 39.2042 74.9559 39.5593L75.01 41.5585ZM74.1653 41.5682C74.4459 41.5694 74.7275 41.5662 75.01 41.5585L74.9559 39.5593C74.6942 39.5663 74.4335 39.5693 74.1736 39.5682L74.1653 41.5682ZM73 42.6405C73 42.0804 73.4967 41.5654 74.1653 41.5682L74.1736 39.5682C72.5073 39.5613 71 40.8656 71 42.6405H73ZM74.1653 43.7128C73.4967 43.7156 73 43.2006 73 42.6405H71C71 44.4154 72.5073 45.7197 74.1736 45.7128L74.1653 43.7128ZM75.01 43.7225C74.7275 43.7149 74.4459 43.7117 74.1653 43.7128L74.1736 45.7128C74.4335 45.7117 74.6942 45.7147 74.9559 45.7218L75.01 43.7225ZM100.881 69.8014C100.611 55.5922 89.2165 44.1065 75.01 43.7225L74.9559 45.7218C88.0941 46.0769 98.6314 56.6989 98.8812 69.8394L100.881 69.8014ZM101.104 81.5389L100.881 69.8014L98.8812 69.8394L99.1044 81.5769L101.104 81.5389ZM102.5 83C101.759 83 101.12 82.3783 101.104 81.5389L99.1044 81.5769C99.1392 83.4057 100.572 85 102.5 85V83ZM103.199 82.2691C103.19 82.6993 102.86 83 102.5 83V85C104.019 85 105.171 83.7564 105.198 82.3071L103.199 82.2691ZM103.436 69.8014L103.199 82.2691L105.198 82.3071L105.435 69.8394L103.436 69.8014ZM129.306 43.7225C115.1 44.1065 103.706 55.5922 103.436 69.8014L105.435 69.8394C105.685 56.6988 116.222 46.0769 129.361 45.7218L129.306 43.7225ZM130.792 43.7231C130.3 43.7094 129.805 43.709 129.306 43.7225L129.361 45.7218C129.822 45.7093 130.281 45.7096 130.736 45.7223L130.792 43.7231ZM132 42.6405C132 43.2157 131.481 43.7423 130.792 43.7231L130.736 45.7223C132.436 45.7698 134 44.454 134 42.6405H132ZM130.792 41.5579C131.481 41.5386 132 42.0653 132 42.6405H134C134 40.827 132.436 39.5112 130.736 39.5587L130.792 41.5579ZM129.306 41.5585C129.805 41.5719 130.3 41.5716 130.792 41.5579L130.736 39.5587C130.281 39.5714 129.822 39.5717 129.361 39.5592L129.306 41.5585ZM103.436 15.4796C103.706 29.6887 115.1 41.1745 129.306 41.5585L129.361 39.5592C116.222 39.2041 105.685 28.5821 105.435 15.4416L103.436 15.4796ZM103.193 2.72526L103.436 15.4796L105.435 15.4416L105.193 2.68723L103.193 2.72526ZM48.8369 54.7892C48.8259 54.3711 48.8235 53.9549 48.8295 53.5407L46.8297 53.5117C46.8233 53.9531 46.8259 54.3965 46.8376 54.8418L48.8369 54.7892ZM49.2265 69.5945L48.8369 54.7892L46.8376 54.8418L47.2272 69.6471L49.2265 69.5945ZM78.4056 98.7944C62.4643 98.3635 49.646 85.5361 49.2265 69.5945L47.2272 69.6471C47.6747 86.6515 61.3475 100.334 78.3516 100.794L78.4056 98.7944ZM87.1362 99.0303L78.4056 98.7944L78.3516 100.794L87.0821 101.03L87.1362 99.0303ZM91 103C91 100.849 89.2868 99.0885 87.1362 99.0303L87.0821 101.03C88.1496 101.058 89 101.932 89 103H91ZM87.1362 106.97C89.2868 106.912 91 105.151 91 103H89C89 104.068 88.1496 104.942 87.0821 104.97L87.1362 106.97ZM78.4056 107.206L87.1362 106.97L87.0821 104.97L78.3516 105.206L78.4056 107.206ZM49.2265 136.405C49.646 120.464 62.4643 107.636 78.4056 107.206L78.3516 105.206C61.3475 105.666 47.6747 119.348 47.2272 136.353L49.2265 136.405ZM48.8369 151.211L49.2265 136.405L47.2272 136.353L46.8376 151.158L48.8369 151.211ZM48.8296 151.567C48.8313 151.448 48.8338 151.33 48.8369 151.211L46.8376 151.158C46.8343 151.285 46.8317 151.411 46.8298 151.538L48.8296 151.567ZM45.5 155C47.4422 155 48.8035 153.343 48.8296 151.567L46.8298 151.538C46.8173 152.39 46.1869 153 45.5 153V155ZM44.7904 154.995C45.0266 154.998 45.2631 155 45.5 155V153C45.2733 153 45.047 152.998 44.8211 152.995L44.7904 154.995ZM41.1631 151.211C41.214 153.144 42.6719 154.962 44.7905 154.995L44.8211 152.995C43.955 152.982 43.1901 152.209 43.1624 151.158L41.1631 151.211ZM40.7735 136.405L41.1631 151.211L43.1624 151.158L42.7728 136.353L40.7735 136.405ZM11.5944 107.206C27.5357 107.636 40.354 120.464 40.7735 136.405L42.7728 136.353C42.3253 119.348 28.6525 105.666 11.6484 105.206L11.5944 107.206ZM3.89084 106.997L11.5944 107.206L11.6484 105.206L3.94487 104.998L3.89084 106.997ZM0 103C0 105.166 1.72519 106.939 3.89084 106.997L3.94487 104.998C2.86235 104.969 2 104.083 2 103H0ZM3.89084 99.0026C1.72519 99.0611 0 100.834 0 103H2C2 101.917 2.86235 101.031 3.94487 101.002L3.89084 99.0026ZM11.5944 98.7944L3.89084 99.0026L3.94487 101.002L11.6484 100.794L11.5944 98.7944ZM40.7735 69.5946C40.354 85.5362 27.5357 98.3635 11.5944 98.7944L11.6484 100.794C28.6525 100.334 42.3253 86.6516 42.7728 69.6472L40.7735 69.5946ZM41.1631 54.7892L40.7735 69.5946L42.7728 69.6472L43.1624 54.8418L41.1631 54.7892ZM41.1667 54.6373C41.1656 54.6879 41.1644 54.7386 41.1631 54.7892L43.1624 54.8418C43.1638 54.7878 43.1651 54.7339 43.1663 54.68L41.1667 54.6373ZM41.1681 54.5687C41.1677 54.5916 41.1672 54.6144 41.1667 54.6372L43.1663 54.6801C43.1668 54.6556 43.1673 54.6312 43.1677 54.6069L41.1681 54.5687ZM45.5 50C42.9366 50 41.2125 52.2459 41.1681 54.5687L43.1677 54.6069C43.1961 53.1256 44.2585 52 45.5 52V50ZM48.8295 53.5407C48.8558 51.7271 47.4876 50 45.5 50V52C46.2018 52 46.8424 52.6361 46.8297 53.5117L48.8295 53.5407Z" fill="#131415"/>
</svg>
