<svg width="61" height="83" viewBox="0 0 61 83" fill="none" xmlns="http://www.w3.org/2000/svg">
<mask id="path-1-inside-1_7360_11294" fill="white">
<path fill-rule="evenodd" clip-rule="evenodd" d="M30.5 0C31.4368 0 32.1751 0.769586 32.1929 1.70624L32.4354 14.4606C32.6954 28.1354 43.6611 39.1893 57.3335 39.5588C57.8133 39.5718 58.2903 39.5715 58.7642 39.5583C59.9581 39.5249 61 40.4462 61 41.6405C61 42.8348 59.9581 43.7561 58.7642 43.7227C58.2903 43.7095 57.8133 43.7092 57.3335 43.7221C43.6611 44.0917 32.6954 55.1455 32.4354 68.8204L32.1983 81.2881C32.1805 82.2278 31.4399 83 30.5 83C29.1657 83 28.1296 81.892 28.1042 80.5579L27.8811 68.8204C27.621 55.1456 16.6553 44.0917 2.98295 43.7221C2.71088 43.7148 2.4397 43.7117 2.16948 43.7128C1.00199 43.7177 0 42.808 0 41.6405C0 40.473 1.00199 39.5634 2.16948 39.5682C2.4397 39.5693 2.71088 39.5662 2.98296 39.5589C16.6553 39.1894 27.621 28.1355 27.8811 14.4606L28.1097 2.43635C28.135 1.10535 29.1688 0 30.5 0Z"/>
</mask>
<path fill-rule="evenodd" clip-rule="evenodd" d="M30.5 0C31.4368 0 32.1751 0.769586 32.1929 1.70624L32.4354 14.4606C32.6954 28.1354 43.6611 39.1893 57.3335 39.5588C57.8133 39.5718 58.2903 39.5715 58.7642 39.5583C59.9581 39.5249 61 40.4462 61 41.6405C61 42.8348 59.9581 43.7561 58.7642 43.7227C58.2903 43.7095 57.8133 43.7092 57.3335 43.7221C43.6611 44.0917 32.6954 55.1455 32.4354 68.8204L32.1983 81.2881C32.1805 82.2278 31.4399 83 30.5 83C29.1657 83 28.1296 81.892 28.1042 80.5579L27.8811 68.8204C27.621 55.1456 16.6553 44.0917 2.98295 43.7221C2.71088 43.7148 2.4397 43.7117 2.16948 43.7128C1.00199 43.7177 0 42.808 0 41.6405C0 40.473 1.00199 39.5634 2.16948 39.5682C2.4397 39.5693 2.71088 39.5662 2.98296 39.5589C16.6553 39.1894 27.621 28.1355 27.8811 14.4606L28.1097 2.43635C28.135 1.10535 29.1688 0 30.5 0Z" fill="#FFD405"/>
<path d="M32.4354 14.4606L34.435 14.4225L32.4354 14.4606ZM57.3335 39.5588L57.2795 41.5581L57.3335 39.5588ZM57.3335 43.7221L57.2795 41.7229L57.3335 43.7221ZM32.4354 68.8204L34.435 68.8584L32.4354 68.8204ZM27.8811 68.8204L29.8807 68.7824L27.8811 68.8204ZM2.98295 43.7221L2.92892 45.7214H2.92892L2.98295 43.7221ZM2.98296 39.5589L2.92892 37.5596H2.92892L2.98296 39.5589ZM27.8811 14.4606L29.8807 14.4986L27.8811 14.4606ZM28.1097 2.43635L26.1101 2.39833L28.1097 2.43635ZM2.16948 39.5682L2.16118 41.5682L2.16948 39.5682ZM32.1983 81.2881L30.1987 81.2501L32.1983 81.2881ZM58.7642 39.5583L58.7084 37.559L58.7642 39.5583ZM28.1042 80.5579L26.1046 80.5959L28.1042 80.5579ZM58.7642 43.7227L58.7084 45.7219L58.7642 43.7227ZM32.1929 1.70624L30.1932 1.74427L32.1929 1.70624ZM34.435 14.4225L34.1925 1.66822L30.1932 1.74427L30.4358 14.4986L34.435 14.4225ZM57.3875 37.5596C44.7836 37.2189 34.6747 27.0288 34.435 14.4225L30.4358 14.4986C30.7161 29.2421 42.5387 41.1597 57.2795 41.5581L57.3875 37.5596ZM58.7084 37.559C58.2711 37.5713 57.8307 37.5716 57.3875 37.5596L57.2795 41.5581C57.7959 41.5721 58.3096 41.5718 58.8201 41.5575L58.7084 37.559ZM57.3875 45.7214C57.8307 45.7094 58.2711 45.7097 58.7084 45.7219L58.8201 41.7235C58.3096 41.7092 57.7959 41.7089 57.2795 41.7229L57.3875 45.7214ZM34.435 68.8584C34.6747 56.2522 44.7836 46.0621 57.3875 45.7214L57.2795 41.7229C42.5387 42.1213 30.7161 54.0389 30.4358 68.7824L34.435 68.8584ZM34.198 81.3261L34.435 68.8584L30.4358 68.7824L30.1987 81.2501L34.198 81.3261ZM25.8814 68.8585L26.1046 80.5959L30.1039 80.5199L29.8807 68.7824L25.8814 68.8585ZM2.92892 45.7214C15.5329 46.0621 25.6417 56.2522 25.8814 68.8585L29.8807 68.7824C29.6003 54.0389 17.7777 42.1213 3.03699 41.7229L2.92892 45.7214ZM2.17778 45.7128C2.42722 45.7118 2.67762 45.7146 2.92892 45.7214L3.03699 41.7229C2.74414 41.715 2.45218 41.7116 2.16118 41.7128L2.17778 45.7128ZM2.92892 37.5596C2.67762 37.5664 2.42722 37.5693 2.17778 37.5682L2.16118 41.5682C2.45218 41.5694 2.74414 41.5661 3.03699 41.5582L2.92892 37.5596ZM25.8814 14.4226C25.6417 27.0289 15.5329 37.219 2.92892 37.5596L3.03699 41.5582C17.7777 41.1598 29.6003 29.2421 29.8807 14.4986L25.8814 14.4226ZM26.1101 2.39833L25.8814 14.4226L29.8807 14.4986L30.1093 2.47437L26.1101 2.39833ZM30.1093 2.47437C30.1123 2.31823 30.1737 2.19118 30.253 2.10918C30.3269 2.03279 30.4083 2 30.5 2V-2C27.9818 -2 26.1542 0.0776707 26.1101 2.39833L30.1093 2.47437ZM2 41.6405C2 41.6382 2.0002 41.6386 1.99974 41.6407C1.99955 41.6416 1.99932 41.6424 1.9991 41.643C1.99889 41.6437 1.99874 41.644 1.99877 41.644C1.99877 41.644 2.00282 41.6351 2.01694 41.6218C2.04861 41.592 2.10063 41.5679 2.16118 41.5682L2.17778 37.5682C0.0125382 37.5592 -2 39.2583 -2 41.6405H2ZM2.16118 41.7128C2.10063 41.7131 2.04861 41.689 2.01694 41.6592C2.00282 41.6459 1.99877 41.6371 1.99877 41.6371C1.99874 41.637 1.99889 41.6373 1.9991 41.638C1.99932 41.6387 1.99955 41.6395 1.99974 41.6403C2.0002 41.6424 2 41.6429 2 41.6405H-2C-2 44.0228 0.0125386 45.7218 2.17778 45.7128L2.16118 41.7128ZM30.1987 81.2501C30.1996 81.2005 30.2208 81.1432 30.2678 81.0953C30.3187 81.0435 30.4048 81 30.5 81V85C32.5988 85 34.1607 83.285 34.198 81.3261L30.1987 81.2501ZM58.8201 41.5575C58.8853 41.5557 58.9427 41.5807 58.9786 41.6135C58.9947 41.6283 58.9999 41.6387 59.0004 41.64C59.0007 41.6405 59.0004 41.6398 59 41.6384C58.9997 41.6369 59 41.6372 59 41.6405H63C63 39.2079 60.9132 37.4974 58.7084 37.559L58.8201 41.5575ZM30.5 81C30.4068 81 30.3241 80.9666 30.2492 80.8892C30.169 80.8062 30.1069 80.6776 30.1039 80.5199L26.1046 80.5959C26.1488 82.9194 27.9784 85 30.5 85V81ZM59 41.6405C59 41.6438 58.9997 41.6441 59 41.6425C59.0004 41.6412 59.0007 41.6405 59.0004 41.641C58.9999 41.6423 58.9947 41.6527 58.9786 41.6674C58.9427 41.7003 58.8853 41.7253 58.8201 41.7235L58.7084 45.7219C60.9132 45.7836 63 44.0731 63 41.6405H59ZM30.5 2C30.4033 2 30.3159 1.95595 30.264 1.90314C30.216 1.85423 30.1942 1.79542 30.1932 1.74427L34.1925 1.66822C34.1553 -0.287787 32.5955 -2 30.5 -2V2Z" fill="#131415" mask="url(#path-1-inside-1_7360_11294)"/>
</svg>
